<svg width="24" height="24" viewBox="0 0 24 24" fill="none" xmlns="http://www.w3.org/2000/svg">
<g clip-path="url(#clip0_1_1664)">
<path d="M22.6322 20.688L21.1202 22.176L16.0562 17.496L17.9522 15.624L22.6322 20.688Z" fill="#FD2C2C"/>
<path d="M0.935799 1.00798L2.9278 5.37598C3.1918 5.92798 3.5278 6.43198 3.9838 6.86398L15.6478 18.072L17.5918 17.136L18.5278 15.192L7.2958 3.50398C6.8638 3.07198 6.3598 2.71198 5.8078 2.44798L1.4398 0.479975C1.1038 0.335975 0.767799 0.671975 0.935799 1.00798Z" fill="#86A9BC"/>
<path d="M18.1198 15.96L18.4798 15.192L7.29581 3.50398C6.86381 3.07198 6.35981 2.71198 5.80781 2.44798L1.43981 0.479979C1.27181 0.407979 1.10381 0.455979 1.00781 0.551979L17.1598 16.704L18.1198 15.96Z" fill="#BDD1DD"/>
<path d="M22.4399 23.568C23.3014 23.568 23.9999 22.8696 23.9999 22.008C23.9999 21.1464 23.3014 20.448 22.4399 20.448C21.5783 20.448 20.8799 21.1464 20.8799 22.008C20.8799 22.8696 21.5783 23.568 22.4399 23.568Z" fill="#F2AE56"/>
<path d="M19.8002 13.056L16.6562 16.2L13.5122 19.344C13.7522 19.776 14.3042 19.896 14.7122 19.608L17.7602 17.328L20.0402 14.256C20.3522 13.872 20.2322 13.296 19.8002 13.056Z" fill="#F2AE56"/>
<path d="M1.36816 20.688L2.88016 22.176L7.94416 17.496L6.04816 15.624L1.36816 20.688Z" fill="#FD2C2C"/>
<path d="M23.0641 1.00798L21.0721 5.37598C20.8081 5.92798 20.4721 6.43198 20.0161 6.86398L8.37609 18.048L6.43209 17.112L5.49609 15.168L16.7041 3.50398C17.1361 3.07198 17.6401 2.71198 18.1921 2.44798L22.5601 0.479975C22.8961 0.335975 23.2321 0.671975 23.0641 1.00798Z" fill="#D9E4EC"/>
<path d="M5.88002 15.96L5.52002 15.192L16.728 3.52798C17.16 3.09598 17.664 2.73598 18.216 2.47198L22.56 0.479979C22.728 0.407979 22.896 0.455979 22.992 0.551979L6.86402 16.704L5.88002 15.96Z" fill="#FFFCF2"/>
<path d="M1.56 23.5681C2.42156 23.5681 3.12 22.8696 3.12 22.0081C3.12 21.1465 2.42156 20.4481 1.56 20.4481C0.698436 20.4481 0 21.1465 0 22.0081C0 22.8696 0.698436 23.5681 1.56 23.5681Z" fill="#FDD47A"/>
<path d="M4.19979 13.056L7.34379 16.2L10.4878 19.344C10.2478 19.776 9.69579 19.896 9.28779 19.608L6.23979 17.328L3.95979 14.256C3.64779 13.872 3.76779 13.296 4.19979 13.056Z" fill="#FDD47A"/>
</g>
<defs>
<clipPath id="clip0_1_1664">
<rect width="24" height="24" fill="white"/>
</clipPath>
</defs>
</svg>
