<svg width="24" height="24" viewBox="0 0 24 24" fill="none" xmlns="http://www.w3.org/2000/svg">
<g clip-path="url(#clip0_1_1585)">
<path d="M23.472 21.744L22.104 21.024V19.344C22.104 18.888 21.864 18.456 21.432 18.168L19.008 16.728V9.552L22.056 7.44C22.464 7.08 22.728 6.576 22.776 6.048L22.704 0.576C22.704 0.264 22.416 0 22.056 0H20.544C20.208 0 19.944 0.216 19.896 0.504L19.56 2.952H18.96H17.352H16.752L16.44 0.504C16.392 0.216 16.128 0 15.792 0H14.424C14.088 0 13.824 0.216 13.776 0.504L13.44 2.952H13.08H11.136H10.536L10.224 0.504C10.176 0.216 9.912 0 9.576 0H8.208C7.872 0 7.608 0.216 7.56 0.504L7.224 2.952H6.624H5.04H4.44L4.104 0.504C4.056 0.216 3.792 0 3.456 0H1.944C1.584 0 1.32 0.264 1.296 0.576L1.248 6.048C1.296 6.576 1.536 7.056 1.968 7.44L4.92 9.576V16.752L2.568 18.216C2.136 18.48 1.896 18.936 1.896 19.392V21.048L0.528 21.768C0.192 21.888 0 22.2 0 22.512V23.352C0 23.712 0.336 24 0.744 24H10.056H13.944H23.256C23.664 24 24 23.712 24 23.352V22.512C24 22.2 23.808 21.888 23.472 21.744Z" fill="#DDC2A9"/>
<path d="M1.94405 7.43997L4.89605 9.55197H19.008L22.056 7.43997C22.464 7.07997 22.728 6.57597 22.776 6.04797H1.24805C1.29605 6.57597 1.53605 7.05597 1.94405 7.43997Z" fill="#AB8C73"/>
<path d="M22.104 19.2C22.056 18.792 21.816 18.408 21.456 18.168L19.032 16.728H4.92L2.568 18.192C2.184 18.432 1.968 18.792 1.896 19.2H22.104Z" fill="#F7DDBA"/>
<path d="M23.976 22.368C23.928 22.104 23.736 21.888 23.472 21.768L22.104 21.048H1.872L0.504 21.768C0.24 21.888 0.048 22.128 0 22.368H23.976Z" fill="#F7DDBA"/>
<path d="M14.784 16.728L14.88 13.488C14.928 11.88 13.608 10.56 12 10.56C10.368 10.56 9.048 11.904 9.12 13.512L9.312 16.728H14.784Z" fill="#AB8C73"/>
<path d="M13.7522 16.728L13.8242 13.992C13.8482 12.912 13.0322 12 12.0242 12C10.9922 12 10.1762 12.912 10.2242 14.016L10.3202 16.728H13.7522Z" fill="#8A583B"/>
</g>
<defs>
<clipPath id="clip0_1_1585">
<rect width="24" height="24" fill="white"/>
</clipPath>
</defs>
</svg>
