<svg width="20" height="24" viewBox="0 0 20 24" fill="none" xmlns="http://www.w3.org/2000/svg">
<path d="M16 19.2C14.89 19.2 14 20.268 14 21.6C14 22.2365 14.2107 22.847 14.5858 23.2971C14.9609 23.7471 15.4696 24 16 24C16.5304 24 17.0391 23.7471 17.4142 23.2971C17.7893 22.847 18 22.2365 18 21.6C18 20.9635 17.7893 20.353 17.4142 19.9029C17.0391 19.4529 16.5304 19.2 16 19.2ZM0 0V2.4H2L5.6 11.508L4.24 14.448C4.09 14.784 4 15.18 4 15.6C4 16.2365 4.21071 16.847 4.58579 17.2971C4.96086 17.7471 5.46957 18 6 18H18V15.6H6.42C6.3537 15.6 6.29011 15.5684 6.24322 15.5121C6.19634 15.4559 6.17 15.3796 6.17 15.3C6.17 15.24 6.18 15.192 6.2 15.156L7.1 13.2H14.55C15.3 13.2 15.96 12.696 16.3 11.964L19.88 4.2C19.95 4.008 20 3.804 20 3.6C20 3.28174 19.8946 2.97652 19.7071 2.75147C19.5196 2.52643 19.2652 2.4 19 2.4H4.21L3.27 0M6 19.2C4.89 19.2 4 20.268 4 21.6C4 22.2365 4.21071 22.847 4.58579 23.2971C4.96086 23.7471 5.46957 24 6 24C6.53043 24 7.03914 23.7471 7.41421 23.2971C7.78929 22.847 8 22.2365 8 21.6C8 20.9635 7.78929 20.353 7.41421 19.9029C7.03914 19.4529 6.53043 19.2 6 19.2Z" fill="white"/>
</svg>
