<svg width="24" height="24" viewBox="0 0 24 24" fill="none" xmlns="http://www.w3.org/2000/svg">
<g clip-path="url(#clip0_1_1619)">
<path d="M0.0626151 10.2528L2.97142 21.9144C3.24502 23.0136 4.35861 23.6808 5.45781 23.4072L11.7602 21.8352C12.8594 21.5616 13.5266 20.448 13.253 19.3488L10.3466 7.68958C10.073 6.59038 8.95942 5.92318 7.86022 6.19678L1.55542 7.76878C0.456215 8.04238 -0.213385 9.15358 0.0626151 10.2528Z" fill="#D6E1E9"/>
<path d="M4.95615 21.8616C4.79055 21.8616 4.58655 21.756 4.52895 21.5256L1.62255 9.86397C1.56495 9.62877 1.70895 9.38637 1.94415 9.32877L8.24895 7.75677C8.28495 7.74717 8.32095 7.74237 8.35695 7.74237C8.52255 7.74237 8.72655 7.84797 8.78415 8.07837L11.6929 19.74C11.7289 19.8864 11.6857 20.004 11.6425 20.0736C11.5993 20.1456 11.5177 20.2368 11.3713 20.2752L5.06415 21.8472C5.02815 21.8568 4.99215 21.8616 4.95615 21.8616Z" fill="#00BDC2"/>
<path d="M13.6538 7.68957L10.7474 19.3512C10.4738 20.4504 11.141 21.5616 12.2402 21.8376L18.545 23.4096C19.6442 23.6832 20.7554 23.016 21.0314 21.9168L23.9402 10.2552C24.2138 9.15597 23.5466 8.04477 22.4474 7.76877L16.1426 6.19677C15.041 5.92077 13.9298 6.59037 13.6538 7.68957Z" fill="#E7EEF2"/>
<path d="M19.0442 21.8616C19.0082 21.8616 18.9722 21.8568 18.9362 21.8472L12.6314 20.2752C12.485 20.2392 12.4034 20.1456 12.3602 20.0736C12.317 20.0016 12.2738 19.8864 12.3098 19.74L15.2162 8.07837C15.2738 7.84797 15.4778 7.74237 15.6434 7.74237C15.6794 7.74237 15.7154 7.74717 15.7514 7.75677L22.0562 9.32877C22.2026 9.36477 22.2842 9.45837 22.3274 9.53037C22.3706 9.60237 22.4138 9.71757 22.3778 9.86397L19.4714 21.5256C19.4138 21.756 19.2098 21.8616 19.0442 21.8616Z" fill="#FFDE46"/>
<path opacity="0.24" d="M15.5928 1.44958H8.4072C7.1544 1.44958 6.1416 2.46478 6.1416 3.71518V17.0016C6.1416 18.2544 7.1568 19.2672 8.4072 19.2672H15.5904C16.8432 19.2672 17.856 18.252 17.856 17.0016V3.71518C17.8584 2.46478 16.8432 1.44958 15.5928 1.44958Z" fill="#5A009D"/>
<path d="M6.1416 2.796V16.0824C6.1416 17.3352 7.1568 18.348 8.4072 18.348H15.5904C16.8432 18.348 17.856 17.3328 17.856 16.0824V2.796C17.856 1.5432 16.8408 0.530396 15.5904 0.530396H8.4072C7.1568 0.530396 6.1416 1.5456 6.1416 2.796Z" fill="white"/>
<path d="M6.1416 2.796V16.0824C6.1416 17.3352 7.1568 18.348 8.4072 18.348H15.5904C16.8432 18.348 17.856 17.3328 17.856 16.0824V2.796C17.856 1.5432 16.8408 0.530396 15.5904 0.530396H8.4072C7.1568 0.530396 6.1416 1.5456 6.1416 2.796Z" fill="white"/>
<path d="M8.40711 16.7424C8.04471 16.7424 7.74951 16.4472 7.74951 16.0848V2.79597C7.74951 2.43357 8.04471 2.13837 8.40711 2.13837H15.5903C15.9527 2.13837 16.2479 2.43357 16.2479 2.79597V16.0824C16.2479 16.4448 15.9527 16.74 15.5903 16.74H8.40711V16.7424Z" fill="#FF6D73"/>
<path d="M12.0004 11.928C13.5804 11.928 14.8612 10.6472 14.8612 9.06722C14.8612 7.48724 13.5804 6.20642 12.0004 6.20642C10.4205 6.20642 9.13965 7.48724 9.13965 9.06722C9.13965 10.6472 10.4205 11.928 12.0004 11.928Z" fill="#FF3038"/>
</g>
<defs>
<clipPath id="clip0_1_1619">
<rect width="24" height="24" fill="white"/>
</clipPath>
</defs>
</svg>
