<svg width="24" height="24" viewBox="0 0 24 24" fill="none" xmlns="http://www.w3.org/2000/svg">
<g clip-path="url(#clip0_1_1594)">
<path d="M12.0003 23.76C23.3979 23.76 22.5555 16.776 22.5555 16.776C22.5555 15.9168 17.8299 15.2208 12.0003 15.2208C6.17072 15.2208 1.44512 15.9192 1.44512 16.776C1.44512 16.776 0.602724 23.76 12.0003 23.76Z" fill="#E79331"/>
<path d="M12.0005 15.2208C6.17092 15.2208 1.44532 15.9168 1.44532 16.776C1.44532 16.776 1.31092 17.9016 1.88452 19.248C3.57652 20.652 6.60052 21.8376 12.0005 21.8376C17.4005 21.8376 20.4269 20.652 22.1165 19.2504C22.6925 17.904 22.5557 16.7784 22.5557 16.7784C22.5557 15.9192 17.8301 15.2208 12.0005 15.2208Z" fill="#FFB048"/>
<path d="M21.7609 15.6696C17.1673 14.5512 2.1577 15.4872 2.1577 15.4872C2.1577 15.4872 -0.0766975 16.1952 0.278503 17.0856C0.633703 17.976 3.2641 17.9544 3.2641 17.9544C3.2641 17.9544 2.9929 18.8448 4.8505 18.3648C4.8505 18.3648 6.1033 20.3688 9.1177 18.5616C9.8017 19.5216 11.7145 21.552 14.3017 18.8304C14.9281 19.2024 15.8593 19.4856 17.2513 19.4616C21.0721 19.392 19.0057 18.456 19.0057 18.456C19.0057 18.456 21.8665 19.2552 21.5953 18C21.5953 18 26.3545 16.788 21.7609 15.6696Z" fill="#699A00"/>
<path d="M21.6287 14.2416C20.9279 13.1856 16.9343 12.3696 12.0551 12.3288C12.0551 12.3288 12.0551 12.3288 12.0551 12.3264C12.0359 12.3264 12.0191 12.3264 11.9999 12.3264C11.9807 12.3264 11.9615 12.3264 11.9447 12.3264C11.9447 12.3264 11.9447 12.3264 11.9447 12.3288C7.06549 12.3696 3.07189 13.1856 2.37109 14.2416V15.996C2.39989 16.0416 2.43349 16.0848 2.47429 16.128C2.47669 16.1304 2.47669 16.1328 2.47669 16.1328H2.47909C3.41509 17.1264 7.28149 17.8776 11.9639 17.9136C11.9759 17.9136 11.9903 17.9136 12.0023 17.9136C12.0143 17.9136 12.0287 17.9136 12.0407 17.9136C16.7231 17.8752 20.5895 17.1264 21.5255 16.1328H21.5279C21.5279 16.1328 21.5303 16.1304 21.5303 16.128C21.5711 16.0848 21.6047 16.0392 21.6335 15.996V14.2416H21.6287Z" fill="#FF6B5C"/>
<path d="M21.7731 9.84482C21.0603 8.77202 17.0091 7.94402 12.0555 7.90322C12.0555 7.90322 12.0555 7.90322 12.0555 7.90082C12.0363 7.90082 12.0171 7.90082 11.9979 7.90082C11.9787 7.90082 11.9595 7.90082 11.9403 7.90082C11.9403 7.90082 11.9403 7.90082 11.9403 7.90322C6.98667 7.94402 2.93547 8.77202 2.22267 9.84482C0.849873 11.5296 1.72587 13.4664 2.14347 14.1912C2.17707 14.2896 2.23707 14.388 2.32587 14.4816C2.32587 14.484 2.32827 14.4864 2.32827 14.4864H2.33067C3.28107 15.4944 7.20507 16.2552 11.9547 16.2936C11.9667 16.2936 11.9811 16.2936 11.9931 16.2936C12.0051 16.2936 12.0195 16.2936 12.0315 16.2936C16.7835 16.2552 20.7075 15.4944 21.6555 14.4864H21.6579C21.6579 14.4864 21.6603 14.484 21.6603 14.4816C21.7491 14.3856 21.8091 14.2896 21.8427 14.1912C22.2699 13.4664 23.1459 11.5296 21.7731 9.84482Z" fill="#A76A62"/>
<path d="M12.0433 14.1C12.0289 14.1 12.0145 14.1 12.0001 14.1C11.9857 14.1 11.9713 14.1 11.9569 14.1C7.01528 14.0592 2.87768 13.2936 1.50488 12.2496C1.58408 13.0896 1.92728 13.8096 2.14808 14.1912C2.18168 14.2896 2.24168 14.388 2.33048 14.4816C2.33048 14.484 2.33288 14.4864 2.33288 14.4864H2.33528C3.28568 15.4944 7.20968 16.2552 11.9593 16.2936C11.9713 16.2936 11.9857 16.2936 11.9977 16.2936C12.0097 16.2936 12.0241 16.2936 12.0361 16.2936C16.7881 16.2552 20.7121 15.4944 21.6601 14.4864H21.6625C21.6625 14.4864 21.6649 14.484 21.6649 14.4816C21.7537 14.3856 21.8137 14.2896 21.8473 14.1912C22.0681 13.8096 22.4113 13.0896 22.4905 12.2496C21.1225 13.2936 16.9849 14.0592 12.0433 14.1Z" fill="#89493E"/>
<path d="M1.87458 9.50397C1.87458 9.50397 0.475381 11.5512 1.52418 13.8048C1.64418 14.0592 1.98258 14.0448 2.09298 13.7856C2.53698 12.7368 3.77298 10.7568 6.75138 10.7568L1.87458 9.50397Z" fill="#FFDE46"/>
<path d="M22.1258 9.50397C22.1258 9.50397 23.525 11.5512 22.4762 13.8048C22.3562 14.0592 22.0178 14.0448 21.9074 13.7856C21.4634 12.7368 20.2274 10.7568 17.249 10.7568L22.1258 9.50397Z" fill="#FFDE46"/>
<path d="M12.0002 9.84241L5.89941 10.3464C5.89941 10.3464 8.64741 11.964 11.417 16.3464C11.6978 16.7904 12.3002 16.7904 12.581 16.3464C15.3506 11.964 18.0986 10.3464 18.0986 10.3464L12.0002 9.84241Z" fill="#FFDE46"/>
<path d="M12.0003 0.23999C0.00748229 0.23999 0.893083 9.35039 0.893083 9.35039C0.893083 10.356 5.86588 11.172 12.0003 11.172C18.1347 11.172 23.1075 10.356 23.1075 9.35039C23.1075 9.35039 23.9931 0.23999 12.0003 0.23999Z" fill="#E79331"/>
<path d="M12.0001 0.23999C7.21694 0.23999 4.48334 1.68959 2.92334 3.43199C2.92334 5.31839 6.98654 6.84959 12.0001 6.84959C17.0137 6.84959 21.0769 5.31839 21.0769 3.43199C19.5169 1.68959 16.7833 0.23999 12.0001 0.23999Z" fill="#FFB048"/>
<path d="M5.72674 5.6272C6.02083 5.11593 5.93605 4.51555 5.53737 4.28622C5.13869 4.05689 4.57709 4.28546 4.28299 4.79673C3.9889 5.308 4.07368 5.90838 4.47236 6.13771C4.87104 6.36703 5.43264 6.13847 5.72674 5.6272Z" fill="#FFE4AD"/>
<path d="M9.15609 9.38686C9.537 9.1267 9.57733 8.52271 9.24615 8.03781C8.91498 7.55291 8.33771 7.37072 7.9568 7.63088C7.57588 7.89103 7.53556 8.49502 7.86673 8.97992C8.19791 9.46482 8.77517 9.64701 9.15609 9.38686Z" fill="#FFE4AD"/>
<path d="M11.0374 3.18019C11.4184 2.92004 11.4587 2.31605 11.1275 1.83115C10.7963 1.34625 10.2191 1.16406 9.83815 1.42421C9.45723 1.68437 9.41691 2.28835 9.74808 2.77325C10.0793 3.25815 10.6565 3.44035 11.0374 3.18019Z" fill="#FFE4AD"/>
<path d="M13.0233 7.21932C13.4042 6.95916 13.4445 6.35517 13.1133 5.87027C12.7822 5.38537 12.2049 5.20318 11.824 5.46333C11.4431 5.72349 11.4027 6.32748 11.7339 6.81238C12.0651 7.29728 12.6424 7.47947 13.0233 7.21932Z" fill="#FFE4AD"/>
<path d="M19.0481 8.45304C19.2472 7.8936 19.0604 7.31612 18.6309 7.16319C18.2013 7.01025 17.6916 7.33979 17.4925 7.89923C17.2933 8.45866 17.4801 9.03615 17.9096 9.18908C18.3392 9.34201 18.8489 9.01247 19.0481 8.45304Z" fill="#FFE4AD"/>
<path d="M16.9685 3.34458C17.1676 2.78514 16.9809 2.20766 16.5513 2.05472C16.1217 1.90179 15.612 2.23133 15.4129 2.79077C15.2137 3.3502 15.4005 3.92769 15.83 4.08062C16.2596 4.23355 16.7693 3.90401 16.9685 3.34458Z" fill="#FFE4AD"/>
</g>
<defs>
<clipPath id="clip0_1_1594">
<rect width="24" height="24" fill="white"/>
</clipPath>
</defs>
</svg>
