<svg width="21" height="23" viewBox="0 0 21 23" fill="none" xmlns="http://www.w3.org/2000/svg">
<path d="M10.1036 12.8117C8.61493 12.8117 7.18721 12.2493 6.13455 11.2482C5.08188 10.2471 4.4905 8.88928 4.4905 7.4735H6.73575C6.73575 8.32297 7.09058 9.13765 7.72218 9.73831C8.35378 10.339 9.21041 10.6764 10.1036 10.6764C10.9968 10.6764 11.8535 10.339 12.4851 9.73831C13.1167 9.13765 13.4715 8.32297 13.4715 7.4735H15.7168C15.7168 8.88928 15.1254 10.2471 14.0727 11.2482C13.02 12.2493 11.5923 12.8117 10.1036 12.8117ZM10.1036 2.13529C10.9968 2.13529 11.8535 2.47274 12.4851 3.0734C13.1167 3.67407 13.4715 4.48874 13.4715 5.33821H6.73575C6.73575 4.48874 7.09058 3.67407 7.72218 3.0734C8.35378 2.47274 9.21041 2.13529 10.1036 2.13529ZM17.962 5.33821H15.7168C15.7168 4.63719 15.5716 3.94303 15.2895 3.29537C15.0074 2.64771 14.5939 2.05923 14.0727 1.56353C13.5515 1.06783 12.9327 0.674618 12.2517 0.406347C11.5707 0.138077 10.8408 0 10.1036 0C8.61493 0 7.18721 0.562417 6.13455 1.56353C5.08188 2.56464 4.4905 3.92243 4.4905 5.33821H2.24525C0.999137 5.33821 0 6.28842 0 7.4735V20.2852C0 20.8515 0.236552 21.3946 0.657619 21.7951C1.07868 22.1955 1.64977 22.4205 2.24525 22.4205H17.962C18.5575 22.4205 19.1286 22.1955 19.5496 21.7951C19.9707 21.3946 20.2073 20.8515 20.2073 20.2852V7.4735C20.2073 6.90719 19.9707 6.36407 19.5496 5.96362C19.1286 5.56318 18.5575 5.33821 17.962 5.33821Z" fill="white"/>
</svg>
