<svg width="24" height="24" viewBox="0 0 24 24" fill="none" xmlns="http://www.w3.org/2000/svg">
<path d="M1.28771 6.51711L2.05796 8.52273L0.0823062 10.4887C-0.332832 13.9967 0.822552 17.6509 3.54596 20.3334C4.43625 21.2085 5.43158 21.9175 6.48943 22.4605L8.47509 22.0564L10.5708 23.7C14.1145 24.119 17.8107 22.9761 20.5191 20.2689C21.4069 19.3814 22.1246 18.3897 22.6723 17.3336L22.4172 15.5238L23.9227 13.2207C24.3153 9.73255 23.16 6.10557 20.4516 3.44298C19.5313 2.53809 18.4984 1.81418 17.4006 1.26381L14.4921 1.47206L13.3167 0.0589498C9.75301 -0.290609 6.00677 0.921691 3.48093 3.50248C2.58064 4.42224 1.84039 5.43125 1.28771 6.51711Z" fill="white"/>
<path opacity="0.35" d="M22.4197 15.5189L23.9252 13.2158C24.1903 10.8705 23.7502 8.46327 22.6123 6.32874L1.53778 17.7129C2.07046 18.6525 2.73818 19.5351 3.54845 20.3334C4.43874 21.2085 5.43407 21.9176 6.49192 22.4605L8.47758 22.0564L10.5733 23.7001C14.117 24.119 17.8132 22.9762 20.5216 20.2689C21.4094 19.3814 22.1271 18.3898 22.6748 17.3336L22.4197 15.5189Z" fill="#A6C8DB"/>
<path d="M15.68 18.769C18.8686 17.0559 21.8821 16.4659 22.6748 17.3311C23.3501 16.0321 23.7652 14.6363 23.9252 13.2158C22.8024 13.5926 20.5866 11.4184 18.8311 8.21037C17.088 5.02468 16.4978 2.01748 17.4031 1.25886C16.1102 0.611808 14.7222 0.212667 13.3142 0.05896C13.5668 1.19689 11.3961 3.33142 8.23504 5.02964C5.1065 6.71049 2.14552 7.31292 1.28523 6.51712C0.642521 7.77404 0.242388 9.12022 0.079834 10.4912C1.24272 10.335 3.34592 12.4596 5.02648 15.5338C6.74955 18.6823 7.34725 21.6597 6.48696 22.4605C7.77739 23.1224 9.16035 23.5315 10.5708 23.6976C10.2832 22.6712 12.4915 20.4697 15.68 18.769ZM14.5621 16.6246C11.9013 18.0129 8.64768 17.0609 7.2197 14.4504C5.79173 11.8398 6.77956 8.5872 9.41293 7.17161C12.0463 5.75602 15.3274 6.73528 16.7554 9.34582C18.1808 11.9564 17.1955 15.209 14.5621 16.6246Z" fill="#A6C8DB"/>
<path d="M1.86542 9.15739C2.33808 9.40283 2.84074 9.7871 3.42594 10.3077C3.9011 10.7738 4.40126 11.3217 4.87642 11.9539C4.84391 10.4937 5.28155 9.06071 6.10933 7.84593C5.35908 8.09632 4.66635 8.29218 4.00113 8.40374C3.25088 8.54505 2.61317 8.5748 2.05798 8.52026C2.05798 8.52026 1.31024 8.30457 0.715039 7.83105C0.574992 8.2178 0.452452 8.6095 0.354919 9.00617C1.08266 8.92188 1.8179 9.15739 1.86542 9.15739Z" fill="#6D95A8"/>
<path d="M22.1646 14.5297C21.692 14.2843 21.1343 13.9 20.5766 13.3521C20.1015 12.886 19.6288 12.3654 19.1812 11.7605C19.1862 13.1934 18.7485 14.6264 17.9482 15.8139C18.6985 15.5635 19.3637 15.3949 20.0014 15.2561C20.8067 15.1148 21.4444 15.085 21.9996 15.1371C21.9996 15.1371 22.7373 15.3503 23.3325 15.8164C23.4676 15.4346 23.5801 15.0503 23.6751 14.6586C22.8899 14.7652 22.1646 14.5297 22.1646 14.5297Z" fill="#6D95A8"/>
<path d="M14.6972 1.80918C14.4496 2.27773 14.062 2.83058 13.5093 3.38343C13.0391 3.85447 12.5139 4.32302 11.9037 4.76679C13.3492 4.76183 14.7672 5.16841 15.9926 5.98901C15.74 5.30228 15.57 4.58581 15.4299 3.95363C15.2874 3.15535 15.2574 2.52317 15.3099 1.9728C15.3099 1.9728 15.5224 1.24641 15.9876 0.658856C15.6075 0.527462 15.2223 0.413421 14.8322 0.319214C14.9298 1.06048 14.6972 1.80918 14.6972 1.80918Z" fill="#6D95A8"/>
<path d="M9.30537 21.9051C9.55295 21.4365 9.94058 20.9382 10.4657 20.3581C10.9359 19.8871 11.4886 19.3912 12.0988 18.9475C10.6258 18.9797 9.15281 18.5186 7.92741 17.698C8.17999 18.4393 8.37756 19.1285 8.49009 19.7879C8.63264 20.5317 8.66265 21.1638 8.60763 21.7142C8.58263 21.739 8.37756 22.4753 7.8949 23.0678C8.29753 23.2116 8.70266 23.3356 9.1153 23.4372C9.05278 22.7108 9.25535 22.0043 9.30537 21.9051Z" fill="#6D95A8"/>
<path d="M20.0414 21.8704L20.6291 18.2732C20.6291 18.2732 18.4409 20.3507 18.4409 22.1754C18.4409 22.1754 18.4359 19.954 17.6481 18.9153C17.6481 18.9153 16.8104 20.5986 16.8429 22.2101C16.8429 22.2101 16.7128 20.5094 15.7825 19.488C15.7825 19.488 15.3674 20.2119 15.1748 21.1986C14.9848 20.2119 14.5671 19.488 14.5671 19.488C13.6368 20.5094 13.5068 22.2101 13.5068 22.2101C13.5293 21.1465 13.1716 20.0557 12.9266 19.4334C12.3689 20.0656 12.1138 21.0498 11.9988 21.7316C11.8837 21.0498 11.6286 20.0656 11.071 19.4334C10.8259 20.0557 10.4683 21.1465 10.4908 22.2101C10.4908 22.2101 10.3607 20.5094 9.43041 19.488C9.43041 19.488 9.01527 20.2119 8.82271 21.1986C8.63264 20.2119 8.21501 19.488 8.21501 19.488C7.2847 20.5094 7.15465 22.2101 7.15465 22.2101C7.18716 20.5986 6.34939 18.9153 6.34939 18.9153C5.56162 19.954 5.55662 22.1754 5.55662 22.1754C5.55662 20.3482 3.3684 18.2732 3.3684 18.2732L3.95609 21.8704L1.83539 19.7408C1.83539 21.6002 2.62815 22.7778 3.24336 23.4124C3.61848 23.7992 4.09114 24 4.5738 24H8.72768H8.91774H11.9062H12.0888H15.0773H15.2673H19.4212C19.9039 24 20.374 23.7992 20.7517 23.4124C21.3669 22.7778 22.1596 21.6002 22.1596 19.7408L20.0414 21.8704Z" fill="#86B918"/>
</svg>
