<svg width="39" height="36" viewBox="0 0 39 36" fill="none" xmlns="http://www.w3.org/2000/svg">
<path d="M33.1283 6.88093C32.3164 6.11821 31.3524 5.51317 30.2914 5.10037C29.2303 4.68757 28.0931 4.4751 26.9446 4.4751C25.7961 4.4751 24.6588 4.68757 23.5978 5.10037C22.5368 5.51317 21.5728 6.11821 20.7608 6.88093L19.0758 8.46311L17.3908 6.88093C15.7508 5.34101 13.5264 4.4759 11.207 4.4759C8.88769 4.4759 6.66333 5.34101 5.0233 6.88093C3.38327 8.42085 2.46191 10.5094 2.46191 12.6872C2.46191 14.865 3.38327 16.9536 5.0233 18.4935L19.0758 31.6882L33.1283 18.4935C33.9406 17.7311 34.585 16.826 35.0247 15.8297C35.4643 14.8334 35.6906 13.7656 35.6906 12.6872C35.6906 11.6088 35.4643 10.541 35.0247 9.54472C34.585 8.54846 33.9406 7.6433 33.1283 6.88093Z" stroke="#A6AABA" stroke-width="4" stroke-linecap="round" stroke-linejoin="round"/>
</svg>
