<svg width="24" height="24" viewBox="0 0 24 24" fill="none" xmlns="http://www.w3.org/2000/svg">
<g clip-path="url(#clip0_1_1304)">
<path d="M12 23.76C23.3976 23.76 22.5552 16.776 22.5552 16.776C22.5552 15.9168 17.8296 15.2208 12 15.2208C6.17036 15.2208 1.44476 15.9192 1.44476 16.776C1.44476 16.776 0.602357 23.76 12 23.76Z" fill="#E79331"/>
<path d="M11.9999 15.2208C6.17031 15.2208 1.44471 15.9168 1.44471 16.776C1.44471 16.776 1.31031 17.9016 1.88391 19.248C3.57591 20.652 6.59991 21.8376 11.9999 21.8376C17.3999 21.8376 20.4263 20.652 22.1159 19.2504C22.6919 17.904 22.5551 16.7784 22.5551 16.7784C22.5551 15.9192 17.8295 15.2208 11.9999 15.2208Z" fill="#FFB048"/>
<path d="M21.7608 15.6696C17.1672 14.5512 2.15758 15.4872 2.15758 15.4872C2.15758 15.4872 -0.0768195 16.1952 0.27838 17.0856C0.63358 17.976 3.26398 17.9544 3.26398 17.9544C3.26398 17.9544 2.99278 18.8448 4.85038 18.3648C4.85038 18.3648 6.10318 20.3688 9.11758 18.5616C9.80158 19.5216 11.7144 21.552 14.3016 18.8304C14.928 19.2024 15.8592 19.4856 17.2512 19.4616C21.072 19.392 19.0056 18.456 19.0056 18.456C19.0056 18.456 21.8664 19.2552 21.5952 18C21.5952 18 26.3544 16.788 21.7608 15.6696Z" fill="#699A00"/>
<path d="M21.6288 14.2416C20.928 13.1856 16.9344 12.3696 12.0552 12.3288C12.0552 12.3288 12.0552 12.3288 12.0552 12.3264C12.036 12.3264 12.0192 12.3264 12 12.3264C11.9808 12.3264 11.9616 12.3264 11.9448 12.3264C11.9448 12.3264 11.9448 12.3264 11.9448 12.3288C7.06555 12.3696 3.07195 13.1856 2.37115 14.2416V15.996C2.39995 16.0416 2.43355 16.0848 2.47435 16.128C2.47675 16.1304 2.47675 16.1328 2.47675 16.1328H2.47915C3.41515 17.1264 7.28155 17.8776 11.964 17.9136C11.976 17.9136 11.9904 17.9136 12.0024 17.9136C12.0144 17.9136 12.0288 17.9136 12.0408 17.9136C16.7232 17.8752 20.5896 17.1264 21.5256 16.1328H21.528C21.528 16.1328 21.5304 16.1304 21.5304 16.128C21.5712 16.0848 21.6048 16.0392 21.6336 15.996V14.2416H21.6288Z" fill="#FF6B5C"/>
<path d="M21.7728 9.84476C21.06 8.77196 17.0088 7.94396 12.0552 7.90316C12.0552 7.90316 12.0552 7.90316 12.0552 7.90076C12.036 7.90076 12.0168 7.90076 11.9976 7.90076C11.9784 7.90076 11.9592 7.90076 11.94 7.90076C11.94 7.90076 11.94 7.90076 11.94 7.90316C6.98637 7.94396 2.93517 8.77196 2.22237 9.84476C0.849568 11.5296 1.72557 13.4664 2.14317 14.1912C2.17677 14.2896 2.23677 14.388 2.32557 14.4816C2.32557 14.484 2.32797 14.4864 2.32797 14.4864H2.33037C3.28077 15.4944 7.20477 16.2552 11.9544 16.2936C11.9664 16.2936 11.9808 16.2936 11.9928 16.2936C12.0048 16.2936 12.0192 16.2936 12.0312 16.2936C16.7832 16.2552 20.7072 15.4944 21.6552 14.4864H21.6576C21.6576 14.4864 21.66 14.484 21.66 14.4816C21.7488 14.3856 21.8088 14.2896 21.8424 14.1912C22.2696 13.4664 23.1456 11.5296 21.7728 9.84476Z" fill="#A76A62"/>
<path d="M12.0432 14.1C12.0288 14.1 12.0144 14.1 12 14.1C11.9856 14.1 11.9712 14.1 11.9568 14.1C7.01516 14.0592 2.87756 13.2936 1.50476 12.2496C1.58396 13.0896 1.92716 13.8096 2.14796 14.1912C2.18156 14.2896 2.24156 14.388 2.33036 14.4816C2.33036 14.484 2.33276 14.4864 2.33276 14.4864H2.33516C3.28556 15.4944 7.20956 16.2552 11.9592 16.2936C11.9712 16.2936 11.9856 16.2936 11.9976 16.2936C12.0096 16.2936 12.024 16.2936 12.036 16.2936C16.788 16.2552 20.712 15.4944 21.66 14.4864H21.6624C21.6624 14.4864 21.6648 14.484 21.6648 14.4816C21.7536 14.3856 21.8136 14.2896 21.8472 14.1912C22.068 13.8096 22.4112 13.0896 22.4904 12.2496C21.1224 13.2936 16.9848 14.0592 12.0432 14.1Z" fill="#89493E"/>
<path d="M1.8744 9.50403C1.8744 9.50403 0.475198 11.5512 1.524 13.8048C1.644 14.0592 1.9824 14.0448 2.0928 13.7856C2.5368 12.7368 3.7728 10.7568 6.7512 10.7568L1.8744 9.50403Z" fill="#FFDE46"/>
<path d="M22.1256 9.50403C22.1256 9.50403 23.5248 11.5512 22.476 13.8048C22.356 14.0592 22.0176 14.0448 21.9072 13.7856C21.4632 12.7368 20.2272 10.7568 17.2488 10.7568L22.1256 9.50403Z" fill="#FFDE46"/>
<path d="M12 9.84241L5.89917 10.3464C5.89917 10.3464 8.64717 11.964 11.4168 16.3464C11.6976 16.7904 12.3 16.7904 12.5808 16.3464C15.3504 11.964 18.0984 10.3464 18.0984 10.3464L12 9.84241Z" fill="#FFDE46"/>
<path d="M12 0.23999C0.00717711 0.23999 0.892778 9.35039 0.892778 9.35039C0.892778 10.356 5.86558 11.172 12 11.172C18.1344 11.172 23.1072 10.356 23.1072 9.35039C23.1072 9.35039 23.9928 0.23999 12 0.23999Z" fill="#E79331"/>
<path d="M12 0.23999C7.21676 0.23999 4.48316 1.68959 2.92316 3.43199C2.92316 5.31839 6.98636 6.84959 12 6.84959C17.0136 6.84959 21.0768 5.31839 21.0768 3.43199C19.5168 1.68959 16.7832 0.23999 12 0.23999Z" fill="#FFB048"/>
<path d="M5.72619 5.62714C6.02028 5.11586 5.9355 4.51549 5.53682 4.28616C5.13814 4.05683 4.57654 4.2854 4.28244 4.79667C3.98835 5.30794 4.07313 5.90832 4.47181 6.13765C4.87049 6.36697 5.43209 6.13841 5.72619 5.62714Z" fill="#FFE4AD"/>
<path d="M9.15572 9.38686C9.53664 9.1267 9.57696 8.52271 9.24579 8.03781C8.91461 7.55291 8.33735 7.37072 7.95643 7.63088C7.57552 7.89103 7.53519 8.49502 7.86637 8.97992C8.19754 9.46482 8.77481 9.64701 9.15572 9.38686Z" fill="#FFE4AD"/>
<path d="M11.0371 3.18019C11.418 2.92004 11.4583 2.31605 11.1271 1.83115C10.796 1.34625 10.2187 1.16406 9.83778 1.42421C9.45686 1.68437 9.41654 2.28835 9.74772 2.77325C10.0789 3.25815 10.6562 3.44035 11.0371 3.18019Z" fill="#FFE4AD"/>
<path d="M13.0228 7.21925C13.4037 6.9591 13.444 6.35511 13.1129 5.87021C12.7817 5.38531 12.2044 5.20312 11.8235 5.46327C11.4426 5.72343 11.4023 6.32742 11.7334 6.81232C12.0646 7.29722 12.6419 7.47941 13.0228 7.21925Z" fill="#FFE4AD"/>
<path d="M19.0474 8.45298C19.2465 7.89354 19.0598 7.31606 18.6302 7.16312C18.2006 7.01019 17.691 7.33973 17.4918 7.89916C17.2926 8.4586 17.4794 9.03608 17.909 9.18902C18.3385 9.34195 18.8482 9.01241 19.0474 8.45298Z" fill="#FFE4AD"/>
<path d="M16.9682 3.34458C17.1673 2.78514 16.9805 2.20766 16.551 2.05472C16.1214 1.90179 15.6117 2.23133 15.4126 2.79077C15.2134 3.3502 15.4002 3.92769 15.8297 4.08062C16.2593 4.23355 16.769 3.90401 16.9682 3.34458Z" fill="#FFE4AD"/>
</g>
<defs>
<clipPath id="clip0_1_1304">
<rect width="24" height="24" fill="white"/>
</clipPath>
</defs>
</svg>
