<svg width="118" height="32" viewBox="0 0 118 32" fill="none" xmlns="http://www.w3.org/2000/svg">
<path d="M112.23 30.9073V15.615H117.13L117.78 10.2328H112.23L112.239 7.53873C112.239 6.13493 112.39 5.38311 114.682 5.38311H117.745V0H112.844C106.958 0 104.886 2.61081 104.886 7.00203V10.2332H101.217V15.6159H104.886V30.6905C106.316 30.9411 107.794 31.0735 109.307 31.0735C110.285 31.0735 111.261 31.018 112.23 30.9073Z" fill="#18A4FE"/>
<path d="M9.55321 15.2799C9.55321 12.4671 11.6909 10.1862 14.3287 10.1862C16.9664 10.1862 19.1053 12.4671 19.1053 15.2799C19.1053 18.0928 16.9664 20.3737 14.3287 20.3737C11.6909 20.3737 9.55321 18.0928 9.55321 15.2799ZM6.97107 15.2799C6.97107 19.6133 10.2651 23.126 14.3287 23.126C18.3923 23.126 21.6863 19.6133 21.6863 15.2799C21.6863 10.9466 18.3923 7.43388 14.3287 7.43388C10.2651 7.43388 6.97107 10.9466 6.97107 15.2799ZM20.2581 7.12278C20.258 7.48543 20.3587 7.83998 20.5475 8.14159C20.7363 8.4432 21.0048 8.67834 21.3189 8.81725C21.633 8.95616 21.9787 8.99262 22.3123 8.92202C22.6459 8.85141 22.9523 8.67691 23.1929 8.42058C23.4334 8.16425 23.5973 7.8376 23.6638 7.48195C23.7303 7.12629 23.6964 6.7576 23.5663 6.4225C23.4363 6.0874 23.2161 5.80094 22.9334 5.59934C22.6507 5.39774 22.3183 5.29006 21.9782 5.28992H21.9775C21.5217 5.29014 21.0846 5.4833 20.7622 5.82696C20.4398 6.17061 20.2585 6.63667 20.2581 7.12278ZM8.53988 27.7175C7.1429 27.6496 6.38359 27.4015 5.87899 27.1918C5.21002 26.9141 4.7327 26.5833 4.23085 26.0489C3.72901 25.5145 3.41836 25.0059 3.15907 24.2925C2.96237 23.7547 2.72967 22.9447 2.66616 21.455C2.5967 19.8444 2.58283 19.3605 2.58283 15.2801C2.58283 11.1996 2.59784 10.7171 2.66616 9.10514C2.72978 7.6154 2.9642 6.80703 3.15907 6.26759C3.41951 5.5542 3.72969 5.04519 4.23085 4.51003C4.73201 3.97486 5.20887 3.64359 5.87899 3.36709C6.38336 3.15733 7.1429 2.90918 8.53988 2.84146C10.0502 2.76738 10.5039 2.75259 14.3287 2.75259C18.1534 2.75259 18.6075 2.7686 20.1192 2.84146C21.5161 2.9093 22.2742 3.15928 22.7801 3.36709C23.449 3.64359 23.9263 3.9756 24.4282 4.51003C24.93 5.04446 25.2395 5.5542 25.5 6.26759C25.6967 6.80544 25.9294 7.6154 25.9929 9.10514C26.0623 10.7171 26.0762 11.1996 26.0762 15.2801C26.0762 19.3605 26.0623 19.843 25.9929 21.455C25.9293 22.9447 25.6954 23.7544 25.5 24.2925C25.2395 25.0059 24.9294 25.5149 24.4282 26.0489C23.927 26.5828 23.449 26.9141 22.7801 27.1918C22.2757 27.4016 21.5161 27.6497 20.1192 27.7175C18.6088 27.7915 18.1551 27.8063 14.3287 27.8063C10.5022 27.8063 10.0498 27.7915 8.53988 27.7175ZM8.42124 0.0925354C6.89587 0.166613 5.85355 0.424538 4.94327 0.802258C4.00056 1.19232 3.20251 1.71563 2.40504 2.56471C1.60756 3.41378 1.11809 4.26616 0.752312 5.27146C0.398108 6.24277 0.15624 7.35369 0.0867744 8.98033C0.0161627 10.6095 0 11.1304 0 15.2799C0 19.4295 0.0161627 19.9504 0.0867744 21.5796C0.15624 23.2063 0.398108 24.3171 0.752312 25.2884C1.11809 26.2931 1.60768 27.1465 2.40504 27.9952C3.2024 28.8439 4.00056 29.3665 4.94327 29.7576C5.85526 30.1354 6.89587 30.3933 8.42124 30.4674C9.94982 30.5414 10.4375 30.5599 14.3287 30.5599C18.2199 30.5599 18.7083 30.5427 20.2361 30.4674C21.7616 30.3933 22.8032 30.1354 23.7141 29.7576C24.6562 29.3665 25.4548 28.8443 26.2523 27.9952C27.0498 27.1461 27.5382 26.2931 27.905 25.2884C28.2592 24.3171 28.5022 23.2062 28.5706 21.5796C28.64 19.9491 28.6562 19.4295 28.6562 15.2799C28.6562 11.1304 28.64 10.6095 28.5706 8.98033C28.5011 7.35357 28.2592 6.24216 27.905 5.27146C27.5382 4.26677 27.0485 3.41513 26.2523 2.56471C25.4561 1.71429 24.6562 1.19232 23.7152 0.802258C22.8032 0.424538 21.7615 0.16539 20.2372 0.0925354C18.7095 0.0184582 18.221 0 14.3298 0C10.4386 0 9.94982 0.0172358 8.42124 0.0925354Z" fill="#26A8FE"/>
<path d="M66.0475 12.94L77.5963 0H74.8596L64.8318 11.2356L56.8227 0H47.5851L59.6965 16.9903L47.5851 30.5599H50.3219L60.9115 18.6947L69.3697 30.5599H78.6073L66.0475 12.94ZM62.2991 17.14L61.0719 15.4481L51.308 1.98589H55.5116L63.3912 12.8503L64.6184 14.5422L74.8609 28.6643H70.6573L62.2991 17.14Z" fill="#26A8FE"/>
</svg>
