<svg width="24" height="24" viewBox="0 0 24 24" fill="none" xmlns="http://www.w3.org/2000/svg">
<g clip-path="url(#clip0_1_1219)">
<path d="M22.632 20.688L21.12 22.176L16.056 17.496L17.952 15.624L22.632 20.688Z" fill="#FD2C2C"/>
<path d="M0.935982 1.00804L2.92798 5.37604C3.19198 5.92804 3.52798 6.43204 3.98398 6.86404L15.648 18.072L17.592 17.136L18.528 15.192L7.29598 3.50404C6.86398 3.07204 6.35998 2.71204 5.80798 2.44804L1.43998 0.480036C1.10398 0.336036 0.767982 0.672036 0.935982 1.00804Z" fill="#86A9BC"/>
<path d="M18.12 15.96L18.48 15.192L7.296 3.50398C6.864 3.07198 6.36 2.71198 5.808 2.44798L1.44 0.479979C1.272 0.407979 1.104 0.455979 1.008 0.551979L17.16 16.704L18.12 15.96Z" fill="#BDD1DD"/>
<path d="M22.44 23.568C23.3016 23.568 24 22.8696 24 22.008C24 21.1464 23.3016 20.448 22.44 20.448C21.5784 20.448 20.88 21.1464 20.88 22.008C20.88 22.8696 21.5784 23.568 22.44 23.568Z" fill="#F2AE56"/>
<path d="M19.8 13.056L16.656 16.2L13.512 19.344C13.752 19.776 14.304 19.896 14.712 19.608L17.76 17.328L20.04 14.256C20.352 13.872 20.232 13.296 19.8 13.056Z" fill="#F2AE56"/>
<path d="M1.36798 20.688L2.87998 22.176L7.94398 17.496L6.04798 15.624L1.36798 20.688Z" fill="#FD2C2C"/>
<path d="M23.064 1.00804L21.072 5.37604C20.808 5.92804 20.472 6.43204 20.016 6.86404L8.37597 18.048L6.43197 17.112L5.49597 15.168L16.704 3.50404C17.136 3.07204 17.64 2.71204 18.192 2.44804L22.56 0.480036C22.896 0.336036 23.232 0.672036 23.064 1.00804Z" fill="#D9E4EC"/>
<path d="M5.88002 15.96L5.52002 15.192L16.728 3.52798C17.16 3.09598 17.664 2.73598 18.216 2.47198L22.56 0.479979C22.728 0.407979 22.896 0.455979 22.992 0.551979L6.86402 16.704L5.88002 15.96Z" fill="#FFFCF2"/>
<path d="M1.56 23.568C2.42156 23.568 3.12 22.8696 3.12 22.008C3.12 21.1464 2.42156 20.448 1.56 20.448C0.698436 20.448 0 21.1464 0 22.008C0 22.8696 0.698436 23.568 1.56 23.568Z" fill="#FDD47A"/>
<path d="M4.19998 13.056L7.34398 16.2L10.488 19.344C10.248 19.776 9.69598 19.896 9.28798 19.608L6.23998 17.328L3.95998 14.256C3.64798 13.872 3.76798 13.296 4.19998 13.056Z" fill="#FDD47A"/>
</g>
<defs>
<clipPath id="clip0_1_1219">
<rect width="24" height="24" fill="white"/>
</clipPath>
</defs>
</svg>
