<svg width="24" height="24" viewBox="0 0 24 24" fill="none" xmlns="http://www.w3.org/2000/svg">
<g clip-path="url(#clip0_1_1287)">
<path d="M23.904 13.944C23.712 9.81598 19.392 8.20798 16.824 5.66398C15.792 4.63198 14.856 3.50398 14.016 2.30398L13.92 2.18398C13.656 1.77598 13.392 1.36798 13.152 0.959981L12.84 0.455981C12.456 -0.144019 11.568 -0.144019 11.184 0.455981L10.848 0.959981C10.608 1.36798 10.344 1.77598 10.08 2.18398L9.98399 2.32798C9.14399 3.52798 8.20799 4.65598 7.17599 5.68798C4.60799 8.23198 0.28799 9.81598 0.0959901 13.944C-9.90927e-06 16.176 1.10399 18.36 3.09599 19.416C4.27199 20.016 5.59199 20.184 6.88799 20.064C7.70399 19.992 8.51999 19.776 9.31199 19.512C9.50399 19.44 10.368 19.152 11.04 18.864C10.824 20.16 10.008 21.984 6.98399 22.176C6.57599 22.2 6.19199 22.488 6.11999 22.92C5.99999 23.496 6.45599 24 7.00799 24L11.88 23.976H11.952H12.024L16.848 24C17.328 24 17.784 23.64 17.808 23.16C17.832 22.656 17.448 22.224 16.944 22.176C13.92 21.984 13.104 20.16 12.888 18.864C13.584 19.152 14.424 19.44 14.616 19.512C15.408 19.776 16.2 19.968 17.04 20.064C18.336 20.184 19.68 20.016 20.832 19.416C22.896 18.36 24 16.176 23.904 13.944Z" fill="#DDDDDC"/>
<path d="M13.584 20.52L10.128 24H11.928H12H12.072H13.056L15.24 21.816C14.472 21.504 13.944 21.048 13.584 20.52Z" fill="white"/>
<path d="M22.992 11.136L14.64 19.488C14.664 19.488 14.688 19.512 14.688 19.512C15.432 19.776 16.224 19.968 17.016 20.04L23.832 13.224C23.688 12.432 23.4 11.76 22.992 11.136Z" fill="white"/>
<path d="M3.09599 19.416C4.17599 19.992 5.42399 20.16 6.62399 20.088L19.128 7.58404C18.312 6.98404 17.496 6.36004 16.8 5.68804C15.768 4.65604 14.832 3.52804 13.992 2.32804L13.92 2.18404C13.896 2.13604 13.848 2.08804 13.824 2.04004L0.23999 15.624C0.62399 17.208 1.60799 18.624 3.09599 19.416Z" fill="white"/>
</g>
<defs>
<clipPath id="clip0_1_1287">
<rect width="24" height="24" fill="white"/>
</clipPath>
</defs>
</svg>
