<svg width="24" height="24" viewBox="0 0 24 24" fill="none" xmlns="http://www.w3.org/2000/svg">
<g clip-path="url(#clip0_1_1175)">
<path d="M20.6161 3.62402C18.7201 1.70402 16.1761 0.384018 13.2721 0.0720183C7.05608 -0.599982 1.29608 3.72002 0.192084 9.86402C-1.03192 16.68 3.72008 23.04 10.5121 23.904C13.2961 24.264 15.9841 23.616 18.2161 22.272C18.8401 21.888 19.0081 21.072 18.5521 20.496L12.5281 12.672C12.2401 12.312 12.3121 11.76 12.6721 11.472L20.4721 5.42402C21.0481 4.99202 21.0961 4.15202 20.6161 3.62402Z" fill="#FDCA3E"/>
<path opacity="0.54" d="M17.2801 18.864C15.5281 19.44 13.6081 19.632 11.6641 19.392C5.85608 18.672 1.44008 14.232 0.456084 8.76001C0.360084 9.12001 0.264084 9.48001 0.192084 9.86401C-1.03192 16.68 3.72008 23.04 10.5121 23.904C13.2961 24.264 15.9841 23.616 18.2161 22.272C18.8401 21.888 19.0081 21.072 18.5521 20.496L17.2801 18.864Z" fill="#F08200"/>
<path d="M13.848 5.92802L13.512 3.88802C13.392 3.21602 12.792 2.66402 12.12 2.71202C11.328 2.76002 10.8 3.48002 10.92 4.24802L11.256 6.28802C11.376 6.96002 11.976 7.51202 12.648 7.46402C13.44 7.39202 13.992 6.69602 13.848 5.92802Z" fill="#131A26"/>
<path d="M20.952 16.368C22.6354 16.368 24 15.0033 24 13.32C24 11.6366 22.6354 10.272 20.952 10.272C19.2686 10.272 17.904 11.6366 17.904 13.32C17.904 15.0033 19.2686 16.368 20.952 16.368Z" fill="#42C6A0"/>
</g>
<defs>
<clipPath id="clip0_1_1175">
<rect width="24" height="24" fill="white"/>
</clipPath>
</defs>
</svg>
