<svg width="24" height="24" viewBox="0 0 24 24" fill="none" xmlns="http://www.w3.org/2000/svg">
<g clip-path="url(#clip0_1_1293)">
<path d="M23.1552 22.5192L22.8144 23.0736H15.3168C13.5072 23.0736 11.8608 21.8856 11.1528 20.0352C8.97597 14.3376 5.63517 12.6288 5.63517 12.6288L5.25837 23.0736H3.02637L2.26797 14.9616C2.11917 13.3632 1.72557 11.808 1.11597 10.3512C-1.05363 5.14797 1.32957 2.28477 2.65917 1.17837C3.08397 0.825568 3.66957 0.844768 4.07517 1.22637C5.85597 2.90637 10.8792 7.93677 13.3752 13.3992C13.8648 14.472 14.7888 15.2184 15.8568 15.4248C16.4664 15.5424 17.0928 15.348 17.556 14.892L18.0912 14.3664C18.3048 14.1576 18.612 14.1168 18.8616 14.2656C19.6704 14.7384 21.48 15.9312 22.9704 17.9136C23.9544 19.2264 24.0216 21.108 23.1552 22.5192Z" fill="#FF6D73"/>
<path d="M23.6663 19.464H15.8591C14.0543 19.464 12.3959 18.4968 11.4887 16.9344C10.0271 14.4168 7.29826 10.5384 3.16066 7.79516C1.81666 6.90476 0.928657 5.97116 0.364657 5.04956C0.100657 6.44396 0.218257 8.19596 1.11586 10.3512C1.72306 11.808 2.11666 13.3656 2.26786 14.9616L3.02626 23.0736H5.25826L5.63506 12.6288C5.63506 12.6288 8.97586 14.3376 11.1527 20.0352C11.8607 21.8832 13.5071 23.0736 15.3167 23.0736H22.8167L23.1575 22.5192C23.7167 21.6048 23.8871 20.4912 23.6663 19.464Z" fill="#FF3038"/>
<path d="M23.7552 20.1504H11.1984C11.928 21.9336 13.5432 23.0736 15.3168 23.0736H22.8168L23.1576 22.5192C23.5944 21.8064 23.7936 20.9712 23.7552 20.1504Z" fill="#F7F2DF"/>
<path d="M2.75275 20.1504L3.02635 23.0736H5.25835L5.36395 20.1504H2.75275Z" fill="#F7F2DF"/>
<path d="M16.4472 14.9879L18.0264 13.6295C18.2928 13.3991 18.6576 13.3631 18.9576 13.5383C19.3776 13.7831 19.9968 14.1647 20.5488 14.5751C21.0096 14.9207 21.0648 15.6527 20.6568 16.0751L19.2936 17.4863C19.104 17.6831 18.816 17.7095 18.5976 17.5511L16.4808 16.0055C16.1616 15.7703 16.1424 15.2495 16.4472 14.9879Z" fill="#F7F2DF"/>
<path d="M20.6712 1.23352C18.3144 1.48072 16.7352 2.28712 15.6936 3.16072C15.3144 3.47752 14.76 3.47752 14.3808 3.16072C13.3368 2.28952 11.76 1.48072 9.4032 1.23352C8.6688 1.15672 8.1 1.86472 8.316 2.57032L9.2256 5.53432C9.2856 5.73352 9.2856 5.94472 9.2256 6.14152L8.316 9.10552C8.1 9.81112 8.6688 10.5191 9.4032 10.4423C11.76 10.1951 13.3392 9.38872 14.3808 8.51512C14.76 8.19832 15.3144 8.19832 15.6936 8.51512C16.7376 9.38632 18.3144 10.1951 20.6712 10.4423C21.4056 10.5191 21.9744 9.81112 21.7584 9.10552L20.8488 6.14392C20.7888 5.94472 20.7888 5.73352 20.8488 5.53672L21.7584 2.57272C21.9768 1.86472 21.4056 1.15672 20.6712 1.23352Z" fill="#FFDE46"/>
<path d="M20.8488 5.53432L21.7584 2.57032C21.9744 1.86472 21.4056 1.15672 20.6712 1.23352C18.3144 1.48072 16.7352 2.28952 15.6936 3.16072C15.3144 3.47752 14.76 3.47752 14.3808 3.16072C13.3368 2.28952 11.76 1.48072 9.4032 1.23352C8.6688 1.15672 8.1 1.86472 8.316 2.57032L9.2256 5.53432C9.2568 5.63272 9.2712 5.73592 9.2712 5.83912H20.8056C20.8032 5.73592 20.82 5.63272 20.8488 5.53432Z" fill="#FFBA1D"/>
</g>
<defs>
<clipPath id="clip0_1_1293">
<rect width="24" height="24" fill="white"/>
</clipPath>
</defs>
</svg>
