<svg width="24" height="24" viewBox="0 0 24 24" fill="none" xmlns="http://www.w3.org/2000/svg">
<g clip-path="url(#clip0_1_1198)">
<path d="M19.704 15.432L21.048 13.248L20.376 9.50399L20.256 8.27999L22.344 5.75999L23.904 2.80799C24.12 2.42399 23.904 2.01599 23.496 2.01599H20.616L19.128 3.79199L16.872 2.01599H13.152L11.16 3.52799L9.43197 2.01599H5.68797L5.03997 5.73599L6.16797 7.17599L4.36797 9.50399L3.71997 13.248L6.79197 16.992H10.512L11.736 15.888L14.232 16.992H17.952L19.68 15.624L19.704 15.432Z" fill="white"/>
<path d="M18.648 13.224L18 16.968H20.88C21.288 16.968 21.648 16.56 21.576 16.176L21.048 13.224H18.648Z" fill="#687696"/>
<path d="M15.576 9.47998H19.296L18.648 13.224H14.904L15.576 9.47998Z" fill="#687696"/>
<path d="M19.944 5.73596L19.296 9.47996H20.376L22.368 5.73596H19.944Z" fill="#687696"/>
<path d="M16.872 1.99194H20.616L19.944 5.73594H16.224L16.872 1.99194Z" fill="#687696"/>
<path d="M11.184 13.224H14.904L14.256 16.968H10.512L11.184 13.224Z" fill="#687696"/>
<path d="M8.112 9.47998H11.832L11.184 13.224H7.44L8.112 9.47998Z" fill="#687696"/>
<path d="M12.504 5.73596H16.224L15.576 9.47996H11.832L12.504 5.73596Z" fill="#687696"/>
<path d="M9.43195 1.99194H13.1519L12.5039 5.73594H8.75995L9.43195 1.99194Z" fill="#687696"/>
<path d="M3.71997 13.224H7.43997L6.79197 16.968H3.04797L3.71997 13.224Z" fill="#687696"/>
<path d="M5.03998 5.73596H8.75998L8.11198 9.47996H4.36798L5.03998 5.73596Z" fill="#687696"/>
<path d="M0.935989 23.76C0.311989 23.76 -0.0960111 23.256 0.0239889 22.632L3.83999 0.88801C3.93599 0.26401 4.53599 -0.23999 5.13599 -0.23999C5.75999 -0.23999 6.16799 0.26401 6.04799 0.88801L2.23199 22.632C2.13599 23.256 1.53599 23.76 0.935989 23.76Z" fill="#D3853A"/>
</g>
<defs>
<clipPath id="clip0_1_1198">
<rect width="24" height="24" fill="white"/>
</clipPath>
</defs>
</svg>
