<svg width="24" height="24" viewBox="0 0 24 24" fill="none" xmlns="http://www.w3.org/2000/svg">
<g clip-path="url(#clip0_1_1212)">
<path d="M15.168 19.7039H6.43201L8.80801 6.09595H17.568L15.168 19.7039Z" fill="#D7031D"/>
<path d="M9.79201 17.256L6.43201 19.704L7.77601 12L9.79201 17.256Z" fill="#9C001D"/>
<path d="M13.992 12.888L15.168 19.704L16.512 12L13.992 12.888Z" fill="#9C001D"/>
<path d="M9.79199 17.2561H3.12L5.75999 2.23206H11.496C12.024 2.23206 12.36 2.66406 12.264 3.16806L9.79199 17.2561Z" fill="#FD2C2C"/>
<path d="M23.496 2.23206H16.8C16.272 2.23206 15.792 2.66406 15.696 3.16806L13.992 12.8881H21.624C22.128 12.8881 22.488 12.3121 22.248 11.9281L19.368 7.56006L23.784 3.19206C24.168 2.80806 24 2.23206 23.496 2.23206Z" fill="#FD2C2C"/>
<path d="M0.935989 24C0.311989 24 -0.0960111 23.496 0.0239889 22.872L3.83999 1.128C3.95999 0.504 4.53599 0 5.15999 0C5.78399 0 6.19199 0.504 6.07199 1.128L2.23199 22.872C2.13599 23.496 1.55999 24 0.935989 24Z" fill="#687696"/>
</g>
<defs>
<clipPath id="clip0_1_1212">
<rect width="24" height="24" fill="white"/>
</clipPath>
</defs>
</svg>
