<svg width="24" height="24" viewBox="0 0 24 24" fill="none" xmlns="http://www.w3.org/2000/svg">
<g clip-path="url(#clip0_1_1264)">
<path d="M15.936 13.344L12 14.4L8.064 13.344C8.064 13.344 2.76 15.168 4.848 19.44H11.976H12H19.128C21.24 15.168 15.936 13.344 15.936 13.344Z" fill="#815023"/>
<path d="M16.416 18.216L15.48 16.488L14.952 15.12L12.12 15.648V15.624L12 15.648L11.88 15.624V15.648L9.04799 15.12L8.51999 16.488L7.58399 18.216C7.07999 19.176 6.98399 20.304 7.31999 21.336C7.87199 22.92 9.35999 24 11.04 24H11.856H11.88H12.12H12.144H12.96C14.64 24 16.128 22.92 16.68 21.336C17.016 20.304 16.92 19.176 16.416 18.216Z" fill="#9D6835"/>
<path d="M4.8 9.6C7.45097 9.6 9.6 7.45097 9.6 4.8C9.6 2.14903 7.45097 0 4.8 0C2.14903 0 0 2.14903 0 4.8C0 7.45097 2.14903 9.6 4.8 9.6Z" fill="#9D6835"/>
<path d="M4.79999 7.58399C6.33755 7.58399 7.58399 6.33755 7.58399 4.79999C7.58399 3.26243 6.33755 2.01599 4.79999 2.01599C3.26243 2.01599 2.01599 3.26243 2.01599 4.79999C2.01599 6.33755 3.26243 7.58399 4.79999 7.58399Z" fill="#815023"/>
<path d="M19.2 9.6C21.851 9.6 24 7.45097 24 4.8C24 2.14903 21.851 0 19.2 0C16.5491 0 14.4 2.14903 14.4 4.8C14.4 7.45097 16.5491 9.6 19.2 9.6Z" fill="#9D6835"/>
<path d="M19.2 7.58399C20.7376 7.58399 21.984 6.33755 21.984 4.79999C21.984 3.26243 20.7376 2.01599 19.2 2.01599C17.6625 2.01599 16.416 3.26243 16.416 4.79999C16.416 6.33755 17.6625 7.58399 19.2 7.58399Z" fill="#815023"/>
<path d="M19.8 7.89604C19.8 3.57604 16.32 0.936035 12 0.936035C7.68001 0.936035 4.20001 3.57604 4.20001 7.89604C4.20001 12.216 7.68001 15.696 12 15.696C16.32 15.696 19.8 12.192 19.8 7.89604Z" fill="#B47F47"/>
<path d="M12 16.08C13.8557 16.08 15.36 15.0699 15.36 13.824C15.36 12.578 13.8557 11.568 12 11.568C10.1443 11.568 8.64001 12.578 8.64001 13.824C8.64001 15.0699 10.1443 16.08 12 16.08Z" fill="#E1D496"/>
<path d="M8.73603 8.88005C8.61603 8.37605 8.08803 8.04005 7.58403 8.18405C7.08003 8.30405 6.74403 8.83205 6.88803 9.33605L7.24803 10.8001C7.36803 11.3041 7.89603 11.6401 8.40003 11.4961C8.90403 11.3521 9.24003 10.8481 9.09603 10.3441L8.73603 8.88005Z" fill="#3B2E3A"/>
<path d="M16.44 8.18401C15.936 8.06401 15.408 8.37601 15.288 8.88001L14.928 10.344C14.808 10.848 15.12 11.376 15.624 11.496C16.128 11.616 16.656 11.304 16.776 10.8L17.136 9.33601C17.256 8.83201 16.944 8.30401 16.44 8.18401Z" fill="#3B2E3A"/>
<path d="M13.872 11.76C13.872 12.168 13.032 12.936 12 12.936C10.968 12.936 10.128 12.168 10.128 11.76C10.128 11.352 10.968 11.04 12 11.04C13.032 11.04 13.872 11.352 13.872 11.76Z" fill="#3B2E3A"/>
<path d="M7.12799 24C8.97041 24 10.464 22.5064 10.464 20.664C10.464 18.8216 8.97041 17.328 7.12799 17.328C5.28557 17.328 3.79199 18.8216 3.79199 20.664C3.79199 22.5064 5.28557 24 7.12799 24Z" fill="#B47F47"/>
<path d="M7.536 23.28C8.56988 23.28 9.408 22.4419 9.408 21.408C9.408 20.3741 8.56988 19.536 7.536 19.536C6.50212 19.536 5.664 20.3741 5.664 21.408C5.664 22.4419 6.50212 23.28 7.536 23.28Z" fill="#E1D496"/>
<path d="M7.89601 19.2961C8.2804 19.2961 8.59201 18.9844 8.59201 18.6001C8.59201 18.2157 8.2804 17.9041 7.89601 17.9041C7.51162 17.9041 7.20001 18.2157 7.20001 18.6001C7.20001 18.9844 7.51162 19.2961 7.89601 19.2961Z" fill="#E1D496"/>
<path d="M6.04796 19.6321C6.52513 19.6321 6.91196 19.2452 6.91196 18.7681C6.91196 18.2909 6.52513 17.9041 6.04796 17.9041C5.57079 17.9041 5.18396 18.2909 5.18396 18.7681C5.18396 19.2452 5.57079 19.6321 6.04796 19.6321Z" fill="#E1D496"/>
<path d="M4.82399 21.0961C5.20838 21.0961 5.51999 20.7845 5.51999 20.4001C5.51999 20.0157 5.20838 19.7041 4.82399 19.7041C4.4396 19.7041 4.12799 20.0157 4.12799 20.4001C4.12799 20.7845 4.4396 21.0961 4.82399 21.0961Z" fill="#E1D496"/>
<path d="M16.872 24C18.7144 24 20.208 22.5064 20.208 20.664C20.208 18.8216 18.7144 17.328 16.872 17.328C15.0296 17.328 13.536 18.8216 13.536 20.664C13.536 22.5064 15.0296 24 16.872 24Z" fill="#B47F47"/>
<path d="M16.464 23.28C17.4979 23.28 18.336 22.4419 18.336 21.408C18.336 20.3741 17.4979 19.536 16.464 19.536C15.4301 19.536 14.592 20.3741 14.592 21.408C14.592 22.4419 15.4301 23.28 16.464 23.28Z" fill="#E1D496"/>
<path d="M16.104 19.2961C16.4884 19.2961 16.8 18.9844 16.8 18.6001C16.8 18.2157 16.4884 17.9041 16.104 17.9041C15.7196 17.9041 15.408 18.2157 15.408 18.6001C15.408 18.9844 15.7196 19.2961 16.104 19.2961Z" fill="#E1D496"/>
<path d="M17.952 19.6321C18.4292 19.6321 18.816 19.2452 18.816 18.7681C18.816 18.2909 18.4292 17.9041 17.952 17.9041C17.4748 17.9041 17.088 18.2909 17.088 18.7681C17.088 19.2452 17.4748 19.6321 17.952 19.6321Z" fill="#E1D496"/>
<path d="M19.176 21.096C19.5604 21.096 19.872 20.7844 19.872 20.4C19.872 20.0156 19.5604 19.704 19.176 19.704C18.7916 19.704 18.48 20.0156 18.48 20.4C18.48 20.7844 18.7916 21.096 19.176 21.096Z" fill="#E1D496"/>
</g>
<defs>
<clipPath id="clip0_1_1264">
<rect width="24" height="24" fill="white"/>
</clipPath>
</defs>
</svg>
