<svg width="24" height="24" viewBox="0 0 24 24" fill="none" xmlns="http://www.w3.org/2000/svg">
<g clip-path="url(#clip0_1_1180)">
<path d="M0.062371 10.2526L2.97117 21.9142C3.24477 23.0134 4.35837 23.6806 5.45757 23.407L11.76 21.835C12.8592 21.5614 13.5264 20.4478 13.2528 19.3486L10.3464 7.68939C10.0728 6.59019 8.95917 5.92299 7.85997 6.19659L1.55517 7.76859C0.455971 8.04219 -0.213629 9.15339 0.062371 10.2526Z" fill="#D6E1E9"/>
<path d="M4.95603 21.8615C4.79043 21.8615 4.58643 21.7559 4.52883 21.5255L1.62243 9.86391C1.56483 9.62871 1.70883 9.38631 1.94403 9.32871L8.24883 7.75671C8.28483 7.74711 8.32083 7.74231 8.35683 7.74231C8.52243 7.74231 8.72643 7.84791 8.78403 8.07831L11.6928 19.7399C11.7288 19.8863 11.6856 20.0039 11.6424 20.0735C11.5992 20.1455 11.5176 20.2367 11.3712 20.2751L5.06403 21.8471C5.02803 21.8567 4.99203 21.8615 4.95603 21.8615Z" fill="#00BDC2"/>
<path d="M13.6536 7.68957L10.7472 19.3512C10.4736 20.4504 11.1408 21.5616 12.24 21.8376L18.5448 23.4096C19.644 23.6832 20.7552 23.016 21.0312 21.9168L23.94 10.2552C24.2136 9.15597 23.5464 8.04477 22.4472 7.76877L16.1424 6.19677C15.0408 5.92077 13.9296 6.59037 13.6536 7.68957Z" fill="#E7EEF2"/>
<path d="M19.044 21.8615C19.008 21.8615 18.972 21.8567 18.936 21.8471L12.6312 20.2751C12.4848 20.2391 12.4032 20.1455 12.36 20.0735C12.3168 20.0015 12.2736 19.8863 12.3096 19.7399L15.216 8.07831C15.2736 7.84791 15.4776 7.74231 15.6432 7.74231C15.6792 7.74231 15.7152 7.74711 15.7512 7.75671L22.056 9.32871C22.2024 9.36471 22.284 9.45831 22.3272 9.53031C22.3704 9.60231 22.4136 9.71751 22.3776 9.86391L19.4712 21.5255C19.4136 21.7559 19.2096 21.8615 19.044 21.8615Z" fill="#FFDE46"/>
<path opacity="0.24" d="M15.5928 1.44958H8.4072C7.1544 1.44958 6.1416 2.46478 6.1416 3.71518V17.0016C6.1416 18.2544 7.1568 19.2672 8.4072 19.2672H15.5904C16.8432 19.2672 17.856 18.252 17.856 17.0016V3.71518C17.8584 2.46478 16.8432 1.44958 15.5928 1.44958Z" fill="#5A009D"/>
<path d="M6.1416 2.796V16.0824C6.1416 17.3352 7.1568 18.348 8.4072 18.348H15.5904C16.8432 18.348 17.856 17.3328 17.856 16.0824V2.796C17.856 1.5432 16.8408 0.530396 15.5904 0.530396H8.4072C7.1568 0.530396 6.1416 1.5456 6.1416 2.796Z" fill="white"/>
<path d="M6.1416 2.796V16.0824C6.1416 17.3352 7.1568 18.348 8.4072 18.348H15.5904C16.8432 18.348 17.856 17.3328 17.856 16.0824V2.796C17.856 1.5432 16.8408 0.530396 15.5904 0.530396H8.4072C7.1568 0.530396 6.1416 1.5456 6.1416 2.796Z" fill="white"/>
<path d="M8.40717 16.7424C8.04477 16.7424 7.74957 16.4472 7.74957 16.0848V2.79603C7.74957 2.43363 8.04477 2.13843 8.40717 2.13843H15.5904C15.9528 2.13843 16.248 2.43363 16.248 2.79603V16.0824C16.248 16.4448 15.9528 16.74 15.5904 16.74H8.40717V16.7424Z" fill="#FF6D73"/>
<path d="M12 11.928C13.58 11.928 14.8608 10.6472 14.8608 9.06722C14.8608 7.48724 13.58 6.20642 12 6.20642C10.42 6.20642 9.13922 7.48724 9.13922 9.06722C9.13922 10.6472 10.42 11.928 12 11.928Z" fill="#FF3038"/>
</g>
<defs>
<clipPath id="clip0_1_1180">
<rect width="24" height="24" fill="white"/>
</clipPath>
</defs>
</svg>
