<svg width="24" height="24" viewBox="0 0 24 24" fill="none" xmlns="http://www.w3.org/2000/svg">
<g clip-path="url(#clip0_1_1231)">
<path d="M1.86483 18.7728L1.38963 23.124C1.36563 23.3496 1.54323 23.5488 1.77123 23.5488H2.09523C2.27283 23.5488 2.42643 23.4264 2.46723 23.2536L3.54003 18.7728" fill="#B97941"/>
<path d="M6.61441 18.7728L7.08961 23.124C7.11361 23.3496 6.93601 23.5488 6.70801 23.5488H6.38401C6.20641 23.5488 6.05281 23.4264 6.01201 23.2536L4.93921 18.7728" fill="#B97941"/>
<path d="M4.16642 5.86316C4.16642 5.86316 -0.407976 8.29676 1.15682 15.7488C1.32242 16.5432 2.02562 17.1144 2.83922 17.1144H8.10242C8.10242 17.1144 7.13042 20.2392 7.58882 23.268C7.61282 23.4312 7.75682 23.5512 7.92242 23.5512H11.0808C11.3064 23.5512 11.4672 23.3352 11.4048 23.1192L11.3448 22.9128C11.316 22.812 11.2416 22.7304 11.1432 22.6944L9.90722 22.2096L10.3128 16.1376C10.3464 15.648 10.0152 15.2088 9.53762 15.1008L5.60162 14.2248L6.28802 9.81836L4.16642 5.86316Z" fill="#FF3038"/>
<path d="M13.2528 6.92632L12.1776 7.00552C12.0168 7.01752 11.8728 7.09912 11.7768 7.22872L11.5176 7.58392L8.31119 8.48632L5.88719 6.46792C5.65679 6.03592 5.20319 5.74072 4.67999 5.74072C3.92399 5.74072 3.31439 6.35272 3.31439 7.10632C3.31439 7.56712 3.54479 7.97512 3.89519 8.22232L3.87599 8.23912L7.43039 10.6031C7.82399 10.8647 8.31359 10.9319 8.76239 10.7855L13.4712 9.26152C13.692 9.18712 13.8408 8.97832 13.8408 8.74552V7.46392C13.836 7.15192 13.5672 6.90232 13.2528 6.92632Z" fill="#FF6D73"/>
<path d="M8.19844 6.51357C9.87252 6.51357 11.2296 5.15646 11.2296 3.48237C11.2296 1.80829 9.87252 0.451172 8.19844 0.451172C6.52435 0.451172 5.16724 1.80829 5.16724 3.48237C5.16724 5.15646 6.52435 6.51357 8.19844 6.51357Z" fill="#FF3038"/>
<path d="M6.65044 19.0296H1.82644C1.45684 19.0296 1.19284 18.6768 1.29604 18.3216L1.53844 17.4864C1.60804 17.2512 1.82404 17.088 2.07124 17.088H6.40804C6.65284 17.088 6.87124 17.2512 6.93844 17.4864L7.18084 18.3216C7.28644 18.6768 7.02004 19.0296 6.65044 19.0296Z" fill="#DA9D6A"/>
<path d="M8.50561 16.26L3.83281 15.3288C3.46801 15.2568 3.22801 14.9016 3.29761 14.5344L4.51681 8.15523L3.82081 6.08643C2.78881 6.83283 -0.148786 9.55923 1.15441 15.7536C1.32001 16.5456 2.02561 17.112 2.83441 17.112H8.09761C8.09761 17.112 7.12561 20.2368 7.58401 23.2656C7.60801 23.4288 7.75201 23.5488 7.91761 23.5488H8.56561C8.24161 21.1416 8.75281 18.3192 9.02641 17.0592C9.10801 16.6944 8.87521 16.3344 8.50561 16.26Z" fill="#FF6D73"/>
<path d="M5.81042 4.43277C5.81042 2.64717 7.25762 1.19757 9.04562 1.19757C9.58802 1.19757 10.0968 1.33197 10.5456 1.56717C9.98882 0.887972 9.14882 0.451172 8.20082 0.451172C6.52562 0.451172 5.16962 1.80957 5.16962 3.48237C5.16962 4.30557 5.49842 5.05197 6.03362 5.59917C5.88962 5.23677 5.81042 4.84557 5.81042 4.43277Z" fill="#FF6D73"/>
<path d="M22.1352 18.7728L22.6104 23.124C22.6344 23.3496 22.4568 23.5488 22.2288 23.5488H21.9048C21.7272 23.5488 21.5736 23.4264 21.5328 23.2536L20.46 18.7728" fill="#B97941"/>
<path d="M17.3856 18.7728L16.9104 23.124C16.8864 23.3496 17.064 23.5488 17.292 23.5488H17.616C17.7936 23.5488 17.9472 23.4264 17.988 23.2536L19.0608 18.7728" fill="#B97941"/>
<path d="M19.8336 5.86316C19.8336 5.86316 24.408 8.29676 22.8432 15.7488C22.6776 16.5432 21.9744 17.1144 21.1608 17.1144H15.9C15.9 17.1144 16.872 20.2392 16.4136 23.268C16.3896 23.4312 16.2456 23.5512 16.08 23.5512H12.9216C12.696 23.5512 12.5352 23.3352 12.5976 23.1192L12.6576 22.9128C12.6864 22.812 12.7608 22.7304 12.8592 22.6944L14.0952 22.2096L13.6896 16.1376C13.656 15.648 13.9872 15.2088 14.4648 15.1008L18.4008 14.2248L17.7144 9.81596L19.8336 5.86316Z" fill="#3E6FD8"/>
<path d="M10.7472 6.92632L11.8224 7.00552C11.9832 7.01752 12.1272 7.09912 12.2232 7.22872L12.4824 7.58392L15.6888 8.48632L18.1128 6.46792C18.3432 6.03592 18.7968 5.74072 19.32 5.74072C20.076 5.74072 20.6856 6.35272 20.6856 7.10632C20.6856 7.56712 20.4552 7.97512 20.1048 8.22232L20.124 8.23912L16.5696 10.6031C16.176 10.8647 15.6864 10.9319 15.2376 10.7855L10.5336 9.26392C10.3128 9.18952 10.164 8.98072 10.164 8.74792V7.46632C10.164 7.15192 10.4328 6.90232 10.7472 6.92632Z" fill="#649CFF"/>
<path d="M15.8016 6.51357C17.4757 6.51357 18.8328 5.15646 18.8328 3.48237C18.8328 1.80829 17.4757 0.451172 15.8016 0.451172C14.1275 0.451172 12.7704 1.80829 12.7704 3.48237C12.7704 5.15646 14.1275 6.51357 15.8016 6.51357Z" fill="#3E6FD8"/>
<path d="M17.3496 19.0296H22.1736C22.5432 19.0296 22.8072 18.6768 22.704 18.3216L22.4616 17.4864C22.392 17.2512 22.176 17.088 21.9312 17.088H17.592C17.3472 17.088 17.1288 17.2512 17.0616 17.4864L16.8192 18.3216C16.7136 18.6768 16.98 19.0296 17.3496 19.0296Z" fill="#DA9D6A"/>
<path d="M15.4944 16.26L20.1672 15.3288C20.532 15.2568 20.772 14.9016 20.7024 14.5344L19.4832 8.15523L20.1792 6.08643C21.2112 6.83283 24.1488 9.55923 22.8456 15.7536C22.68 16.5456 21.9744 17.112 21.1656 17.112H15.9C15.9 17.112 16.872 20.2368 16.4136 23.2656C16.3896 23.4288 16.2456 23.5488 16.08 23.5488H15.432C15.756 21.1416 15.2448 18.3192 14.9712 17.0592C14.892 16.6944 15.1248 16.3344 15.4944 16.26Z" fill="#649CFF"/>
<path d="M18.1896 4.43277C18.1896 2.64717 16.7424 1.19757 14.9544 1.19757C14.412 1.19757 13.9032 1.33197 13.4544 1.56717C14.0112 0.887972 14.8512 0.451172 15.7992 0.451172C17.4744 0.451172 18.8304 1.80957 18.8304 3.48237C18.8304 4.30557 18.5016 5.05197 17.9664 5.59917C18.1104 5.23677 18.1896 4.84557 18.1896 4.43277Z" fill="#649CFF"/>
</g>
<defs>
<clipPath id="clip0_1_1231">
<rect width="24" height="24" fill="white"/>
</clipPath>
</defs>
</svg>
