<svg width="24" height="24" viewBox="0 0 24 24" fill="none" xmlns="http://www.w3.org/2000/svg">
<g clip-path="url(#clip0_1_1639)">
<path d="M15.9362 13.344L12.0002 14.4L8.06418 13.344C8.06418 13.344 2.76018 15.168 4.84818 19.44H11.9762H12.0002H19.1282C21.2402 15.168 15.9362 13.344 15.9362 13.344Z" fill="#815023"/>
<path d="M16.416 18.216L15.48 16.488L14.952 15.12L12.12 15.648V15.624L12 15.648L11.88 15.624V15.648L9.04799 15.12L8.51999 16.488L7.58399 18.216C7.07999 19.176 6.98399 20.304 7.31999 21.336C7.87199 22.92 9.35999 24 11.04 24H11.856H11.88H12.12H12.144H12.96C14.64 24 16.128 22.92 16.68 21.336C17.016 20.304 16.92 19.176 16.416 18.216Z" fill="#9D6835"/>
<path d="M4.8 9.6C7.45097 9.6 9.6 7.45097 9.6 4.8C9.6 2.14903 7.45097 0 4.8 0C2.14903 0 0 2.14903 0 4.8C0 7.45097 2.14903 9.6 4.8 9.6Z" fill="#9D6835"/>
<path d="M4.80011 7.58399C6.33767 7.58399 7.58411 6.33755 7.58411 4.79999C7.58411 3.26243 6.33767 2.01599 4.80011 2.01599C3.26255 2.01599 2.01611 3.26243 2.01611 4.79999C2.01611 6.33755 3.26255 7.58399 4.80011 7.58399Z" fill="#815023"/>
<path d="M19.1999 9.6C21.8509 9.6 23.9999 7.45097 23.9999 4.8C23.9999 2.14903 21.8509 0 19.1999 0C16.5489 0 14.3999 2.14903 14.3999 4.8C14.3999 7.45097 16.5489 9.6 19.1999 9.6Z" fill="#9D6835"/>
<path d="M19.2 7.58399C20.7376 7.58399 21.984 6.33755 21.984 4.79999C21.984 3.26243 20.7376 2.01599 19.2 2.01599C17.6625 2.01599 16.416 3.26243 16.416 4.79999C16.416 6.33755 17.6625 7.58399 19.2 7.58399Z" fill="#815023"/>
<path d="M19.8002 7.89597C19.8002 3.57597 16.3202 0.935974 12.0002 0.935974C7.6802 0.935974 4.2002 3.57597 4.2002 7.89597C4.2002 12.216 7.6802 15.696 12.0002 15.696C16.3202 15.696 19.8002 12.192 19.8002 7.89597Z" fill="#B47F47"/>
<path d="M12.0001 16.08C13.8558 16.08 15.3601 15.0699 15.3601 13.824C15.3601 12.578 13.8558 11.568 12.0001 11.568C10.1445 11.568 8.64014 12.578 8.64014 13.824C8.64014 15.0699 10.1445 16.08 12.0001 16.08Z" fill="#E1D496"/>
<path d="M8.73603 8.87999C8.61603 8.37599 8.08803 8.03999 7.58403 8.18399C7.08003 8.30399 6.74403 8.83199 6.88803 9.33599L7.24803 10.8C7.36803 11.304 7.89603 11.64 8.40003 11.496C8.90403 11.352 9.24003 10.848 9.09603 10.344L8.73603 8.87999Z" fill="#3B2E3A"/>
<path d="M16.44 8.18401C15.936 8.06401 15.408 8.37601 15.288 8.88001L14.928 10.344C14.808 10.848 15.12 11.376 15.624 11.496C16.128 11.616 16.656 11.304 16.776 10.8L17.136 9.33601C17.256 8.83201 16.944 8.30401 16.44 8.18401Z" fill="#3B2E3A"/>
<path d="M13.8719 11.76C13.8719 12.168 13.0319 12.936 11.9999 12.936C10.9679 12.936 10.1279 12.168 10.1279 11.76C10.1279 11.352 10.9679 11.04 11.9999 11.04C13.0319 11.04 13.8719 11.352 13.8719 11.76Z" fill="#3B2E3A"/>
<path d="M7.12799 24C8.97041 24 10.464 22.5064 10.464 20.664C10.464 18.8216 8.97041 17.328 7.12799 17.328C5.28557 17.328 3.79199 18.8216 3.79199 20.664C3.79199 22.5064 5.28557 24 7.12799 24Z" fill="#B47F47"/>
<path d="M7.53606 23.28C8.56994 23.28 9.40806 22.4419 9.40806 21.408C9.40806 20.3741 8.56994 19.536 7.53606 19.536C6.50219 19.536 5.66406 20.3741 5.66406 21.408C5.66406 22.4419 6.50219 23.28 7.53606 23.28Z" fill="#E1D496"/>
<path d="M7.89571 19.296C8.2801 19.296 8.59171 18.9844 8.59171 18.6C8.59171 18.2156 8.2801 17.904 7.89571 17.904C7.51132 17.904 7.19971 18.2156 7.19971 18.6C7.19971 18.9844 7.51132 19.296 7.89571 19.296Z" fill="#E1D496"/>
<path d="M6.04808 19.632C6.52526 19.632 6.91208 19.2452 6.91208 18.768C6.91208 18.2908 6.52526 17.904 6.04808 17.904C5.57091 17.904 5.18408 18.2908 5.18408 18.768C5.18408 19.2452 5.57091 19.632 6.04808 19.632Z" fill="#E1D496"/>
<path d="M4.82393 21.096C5.20832 21.096 5.51993 20.7844 5.51993 20.4C5.51993 20.0156 5.20832 19.704 4.82393 19.704C4.43954 19.704 4.12793 20.0156 4.12793 20.4C4.12793 20.7844 4.43954 21.096 4.82393 21.096Z" fill="#E1D496"/>
<path d="M16.8721 24C18.7146 24 20.2081 22.5064 20.2081 20.664C20.2081 18.8216 18.7146 17.328 16.8721 17.328C15.0297 17.328 13.5361 18.8216 13.5361 20.664C13.5361 22.5064 15.0297 24 16.8721 24Z" fill="#B47F47"/>
<path d="M16.4638 23.28C17.4977 23.28 18.3358 22.4419 18.3358 21.408C18.3358 20.3741 17.4977 19.536 16.4638 19.536C15.4299 19.536 14.5918 20.3741 14.5918 21.408C14.5918 22.4419 15.4299 23.28 16.4638 23.28Z" fill="#E1D496"/>
<path d="M16.1042 19.296C16.4886 19.296 16.8002 18.9844 16.8002 18.6C16.8002 18.2156 16.4886 17.904 16.1042 17.904C15.7198 17.904 15.4082 18.2156 15.4082 18.6C15.4082 18.9844 15.7198 19.296 16.1042 19.296Z" fill="#E1D496"/>
<path d="M17.9519 19.632C18.4291 19.632 18.8159 19.2452 18.8159 18.768C18.8159 18.2908 18.4291 17.904 17.9519 17.904C17.4747 17.904 17.0879 18.2908 17.0879 18.768C17.0879 19.2452 17.4747 19.632 17.9519 19.632Z" fill="#E1D496"/>
<path d="M19.176 21.096C19.5604 21.096 19.872 20.7844 19.872 20.4C19.872 20.0156 19.5604 19.704 19.176 19.704C18.7916 19.704 18.48 20.0156 18.48 20.4C18.48 20.7844 18.7916 21.096 19.176 21.096Z" fill="#E1D496"/>
</g>
<defs>
<clipPath id="clip0_1_1639">
<rect width="24" height="24" fill="white"/>
</clipPath>
</defs>
</svg>
