<svg width="29" height="31" viewBox="0 0 29 31" fill="none" xmlns="http://www.w3.org/2000/svg">
<path d="M9.55321 15.28C9.55321 12.4672 11.6909 10.1863 14.3287 10.1863C16.9664 10.1863 19.1053 12.4672 19.1053 15.28C19.1053 18.0929 16.9664 20.3737 14.3287 20.3737C11.6909 20.3737 9.55321 18.0929 9.55321 15.28ZM6.97107 15.28C6.97107 19.6134 10.2651 23.1261 14.3287 23.1261C18.3923 23.1261 21.6863 19.6134 21.6863 15.28C21.6863 10.9466 18.3923 7.43394 14.3287 7.43394C10.2651 7.43394 6.97107 10.9466 6.97107 15.28ZM20.2581 7.12284C20.258 7.48549 20.3587 7.84004 20.5475 8.14165C20.7363 8.44327 21.0048 8.6784 21.3189 8.81731C21.633 8.95623 21.9787 8.99268 22.3123 8.92208C22.6459 8.85147 22.9523 8.67697 23.1929 8.42064C23.4334 8.16431 23.5973 7.83766 23.6638 7.48201C23.7303 7.12635 23.6964 6.75766 23.5663 6.42256C23.4363 6.08746 23.2161 5.801 22.9334 5.5994C22.6507 5.3978 22.3183 5.29012 21.9782 5.28998H21.9775C21.5217 5.29021 21.0846 5.48336 20.7622 5.82702C20.4398 6.17067 20.2585 6.63674 20.2581 7.12284ZM8.53988 27.7175C7.1429 27.6497 6.38359 27.4015 5.87899 27.1919C5.21002 26.9142 4.7327 26.5834 4.23085 26.0489C3.72901 25.5145 3.41836 25.006 3.15907 24.2926C2.96237 23.7548 2.72967 22.9448 2.66616 21.4551C2.5967 19.8444 2.58283 19.3606 2.58283 15.2801C2.58283 11.1997 2.59784 10.7172 2.66616 9.1052C2.72978 7.61546 2.9642 6.80709 3.15907 6.26765C3.41951 5.55426 3.72969 5.04526 4.23085 4.51009C4.73201 3.97493 5.20887 3.64366 5.87899 3.36715C6.38336 3.15739 7.1429 2.90924 8.53988 2.84152C10.0502 2.76744 10.5039 2.75265 14.3287 2.75265C18.1534 2.75265 18.6075 2.76867 20.1192 2.84152C21.5161 2.90936 22.2742 3.15934 22.7801 3.36715C23.449 3.64366 23.9263 3.97566 24.4282 4.51009C24.93 5.04452 25.2395 5.55426 25.5 6.26765C25.6967 6.8055 25.9294 7.61546 25.9929 9.1052C26.0623 10.7172 26.0762 11.1997 26.0762 15.2801C26.0762 19.3606 26.0623 19.8431 25.9929 21.4551C25.9293 22.9448 25.6954 23.7545 25.5 24.2926C25.2395 25.006 24.9294 25.515 24.4282 26.0489C23.927 26.5829 23.449 26.9142 22.7801 27.1919C22.2757 27.4016 21.5161 27.6498 20.1192 27.7175C18.6088 27.7916 18.1551 27.8064 14.3287 27.8064C10.5022 27.8064 10.0498 27.7916 8.53988 27.7175ZM8.42124 0.0925964C6.89587 0.166674 5.85355 0.424599 4.94327 0.802319C4.00056 1.19239 3.20251 1.71569 2.40504 2.56477C1.60756 3.41385 1.11809 4.26622 0.752312 5.27152C0.398108 6.24284 0.15624 7.35375 0.0867744 8.98039C0.0161627 10.6096 0 11.1305 0 15.28C0 19.4296 0.0161627 19.9504 0.0867744 21.5796C0.15624 23.2064 0.398108 24.3172 0.752312 25.2885C1.11809 26.2932 1.60768 27.1465 2.40504 27.9952C3.2024 28.844 4.00056 29.3665 4.94327 29.7577C5.85526 30.1354 6.89587 30.3933 8.42124 30.4674C9.94982 30.5415 10.4375 30.56 14.3287 30.56C18.2199 30.56 18.7083 30.5427 20.2361 30.4674C21.7616 30.3933 22.8032 30.1354 23.7141 29.7577C24.6562 29.3665 25.4548 28.8443 26.2523 27.9952C27.0498 27.1462 27.5382 26.2932 27.905 25.2885C28.2592 24.3172 28.5022 23.2063 28.5706 21.5796C28.64 19.9492 28.6562 19.4296 28.6562 15.28C28.6562 11.1305 28.64 10.6096 28.5706 8.98039C28.5011 7.35363 28.2592 6.24222 27.905 5.27152C27.5382 4.26683 27.0485 3.41519 26.2523 2.56477C25.4561 1.71435 24.6562 1.19239 23.7152 0.802319C22.8032 0.424599 21.7615 0.165451 20.2372 0.0925964C18.7095 0.0185192 18.221 6.10352e-05 14.3298 6.10352e-05C10.4386 6.10352e-05 9.94982 0.0172968 8.42124 0.0925964Z" fill="#26A8FE"/>
</svg>
