<svg width="24" height="24" viewBox="0 0 24 24" fill="none" xmlns="http://www.w3.org/2000/svg">
<g clip-path="url(#clip0_1_1678)">
<path d="M23.9041 13.944C23.7121 9.81598 19.3921 8.20798 16.8241 5.66398C15.7921 4.63198 14.8561 3.50398 14.0161 2.30398L13.9201 2.18398C13.6561 1.77598 13.3921 1.36798 13.1521 0.959981L12.8401 0.455981C12.4561 -0.144019 11.5681 -0.144019 11.1841 0.455981L10.8481 0.959981C10.6081 1.36798 10.3441 1.77598 10.0801 2.18398L9.98411 2.32798C9.14411 3.52798 8.20811 4.65598 7.17611 5.68798C4.60811 8.23198 0.288112 9.81598 0.0961122 13.944C0.000112154 16.176 1.10411 18.36 3.09611 19.416C4.27211 20.016 5.59211 20.184 6.88811 20.064C7.70411 19.992 8.52011 19.776 9.31211 19.512C9.50411 19.44 10.3681 19.152 11.0401 18.864C10.8241 20.16 10.0081 21.984 6.98411 22.176C6.57611 22.2 6.19211 22.488 6.12011 22.92C6.00011 23.496 6.45611 24 7.00811 24L11.8801 23.976H11.9521H12.0241L16.8481 24C17.3281 24 17.7841 23.64 17.8081 23.16C17.8321 22.656 17.4481 22.224 16.9441 22.176C13.9201 21.984 13.1041 20.16 12.8881 18.864C13.5841 19.152 14.4241 19.44 14.6161 19.512C15.4081 19.776 16.2001 19.968 17.0401 20.064C18.3361 20.184 19.6801 20.016 20.8321 19.416C22.8961 18.36 24.0001 16.176 23.9041 13.944Z" fill="#DDDDDC"/>
<path d="M13.5844 20.52L10.1284 24H11.9284H12.0004H12.0724H13.0564L15.2404 21.816C14.4724 21.504 13.9444 21.048 13.5844 20.52Z" fill="white"/>
<path d="M22.9921 11.136L14.6401 19.488C14.6641 19.488 14.6881 19.512 14.6881 19.512C15.4321 19.776 16.2241 19.968 17.0161 20.04L23.8321 13.224C23.6881 12.432 23.4001 11.76 22.9921 11.136Z" fill="white"/>
<path d="M3.09623 19.416C4.17623 19.992 5.42423 20.16 6.62423 20.088L19.1282 7.58398C18.3122 6.98398 17.4962 6.35998 16.8002 5.68798C15.7682 4.65598 14.8322 3.52798 13.9922 2.32798L13.9202 2.18398C13.8962 2.13598 13.8482 2.08798 13.8242 2.03998L0.240234 15.624C0.624234 17.208 1.60823 18.624 3.09623 19.416Z" fill="white"/>
</g>
<defs>
<clipPath id="clip0_1_1678">
<rect width="24" height="24" fill="white"/>
</clipPath>
</defs>
</svg>
