<svg width="24" height="24" viewBox="0 0 24 24" fill="none" xmlns="http://www.w3.org/2000/svg">
<g clip-path="url(#clip0_1_1561)">
<path d="M1.86458 18.7728L1.38938 23.124C1.36538 23.3496 1.54298 23.5488 1.77098 23.5488H2.09498C2.27258 23.5488 2.42618 23.4264 2.46698 23.2536L3.53978 18.7728" fill="#B97941"/>
<path d="M6.61416 18.7728L7.08937 23.124C7.11336 23.3496 6.93577 23.5488 6.70776 23.5488H6.38376C6.20616 23.5488 6.05256 23.4264 6.01176 23.2536L4.93896 18.7728" fill="#B97941"/>
<path d="M4.1663 5.86316C4.1663 5.86316 -0.408099 8.29676 1.1567 15.7488C1.3223 16.5432 2.0255 17.1144 2.8391 17.1144H8.1023C8.1023 17.1144 7.1303 20.2392 7.5887 23.268C7.6127 23.4312 7.7567 23.5512 7.9223 23.5512H11.0807C11.3063 23.5512 11.4671 23.3352 11.4047 23.1192L11.3447 22.9128C11.3159 22.812 11.2415 22.7304 11.1431 22.6944L9.9071 22.2096L10.3127 16.1376C10.3463 15.648 10.0151 15.2088 9.5375 15.1008L5.6015 14.2248L6.2879 9.81836L4.1663 5.86316Z" fill="#FF3038"/>
<path d="M13.2524 6.92638L12.1772 7.00558C12.0164 7.01758 11.8724 7.09918 11.7764 7.22878L11.5172 7.58398L8.31076 8.48638L5.88677 6.46798C5.65636 6.03598 5.20276 5.74078 4.67956 5.74078C3.92356 5.74078 3.31396 6.35278 3.31396 7.10638C3.31396 7.56718 3.54436 7.97518 3.89476 8.22238L3.87556 8.23918L7.42996 10.6032C7.82356 10.8648 8.31316 10.932 8.76196 10.7856L13.4708 9.26158C13.6916 9.18718 13.8404 8.97838 13.8404 8.74558V7.46398C13.8356 7.15198 13.5668 6.90238 13.2524 6.92638Z" fill="#FF6D73"/>
<path d="M8.19819 6.51357C9.87228 6.51357 11.2294 5.15646 11.2294 3.48237C11.2294 1.80829 9.87228 0.451172 8.19819 0.451172C6.52411 0.451172 5.16699 1.80829 5.16699 3.48237C5.16699 5.15646 6.52411 6.51357 8.19819 6.51357Z" fill="#FF3038"/>
<path d="M6.65038 19.0296H1.82638C1.45678 19.0296 1.19278 18.6768 1.29598 18.3216L1.53838 17.4864C1.60798 17.2512 1.82398 17.088 2.07118 17.088H6.40798C6.65278 17.088 6.87118 17.2512 6.93838 17.4864L7.18078 18.3216C7.28638 18.6768 7.01998 19.0296 6.65038 19.0296Z" fill="#DA9D6A"/>
<path d="M8.50537 16.26L3.83257 15.3288C3.46777 15.2568 3.22777 14.9016 3.29737 14.5344L4.51657 8.15516L3.82057 6.08636C2.78857 6.83276 -0.14903 9.55916 1.15417 15.7536C1.31977 16.5456 2.02537 17.112 2.83417 17.112H8.09737C8.09737 17.112 7.12537 20.2368 7.58377 23.2656C7.60777 23.4288 7.75177 23.5488 7.91737 23.5488H8.56537C8.24137 21.1416 8.75257 18.3192 9.02617 17.0592C9.10777 16.6944 8.87497 16.3344 8.50537 16.26Z" fill="#FF6D73"/>
<path d="M5.81023 4.43277C5.81023 2.64717 7.25743 1.19757 9.04543 1.19757C9.58783 1.19757 10.0966 1.33197 10.5454 1.56717C9.98863 0.887972 9.14863 0.451172 8.20063 0.451172C6.52543 0.451172 5.16943 1.80957 5.16943 3.48237C5.16943 4.30557 5.49823 5.05197 6.03343 5.59917C5.88943 5.23677 5.81023 4.84557 5.81023 4.43277Z" fill="#FF6D73"/>
<path d="M22.1347 18.7728L22.6099 23.124C22.6339 23.3496 22.4563 23.5488 22.2283 23.5488H21.9043C21.7267 23.5488 21.5731 23.4264 21.5323 23.2536L20.4595 18.7728" fill="#B97941"/>
<path d="M17.3851 18.7728L16.9099 23.124C16.8859 23.3496 17.0635 23.5488 17.2915 23.5488H17.6155C17.7931 23.5488 17.9467 23.4264 17.9875 23.2536L19.0603 18.7728" fill="#B97941"/>
<path d="M19.833 5.86316C19.833 5.86316 24.4074 8.29676 22.8426 15.7488C22.677 16.5432 21.9738 17.1144 21.1602 17.1144H15.8994C15.8994 17.1144 16.8714 20.2392 16.413 23.268C16.389 23.4312 16.245 23.5512 16.0794 23.5512H12.921C12.6954 23.5512 12.5346 23.3352 12.597 23.1192L12.657 22.9128C12.6858 22.812 12.7602 22.7304 12.8586 22.6944L14.0946 22.2096L13.689 16.1376C13.6554 15.648 13.9866 15.2088 14.4642 15.1008L18.4002 14.2248L17.7138 9.81596L19.833 5.86316Z" fill="#3E6FD8"/>
<path d="M10.7468 6.92638L11.822 7.00558C11.9828 7.01758 12.1268 7.09918 12.2228 7.22878L12.482 7.58398L15.6884 8.48638L18.1124 6.46798C18.3428 6.03598 18.7964 5.74078 19.3196 5.74078C20.0756 5.74078 20.6852 6.35278 20.6852 7.10638C20.6852 7.56718 20.4548 7.97518 20.1044 8.22238L20.1236 8.23918L16.5692 10.6032C16.1756 10.8648 15.686 10.932 15.2372 10.7856L10.5332 9.26398C10.3124 9.18958 10.1636 8.98078 10.1636 8.74798V7.46638C10.1636 7.15198 10.4324 6.90238 10.7468 6.92638Z" fill="#649CFF"/>
<path d="M15.8012 6.51357C17.4753 6.51357 18.8324 5.15646 18.8324 3.48237C18.8324 1.80829 17.4753 0.451172 15.8012 0.451172C14.1271 0.451172 12.77 1.80829 12.77 3.48237C12.77 5.15646 14.1271 6.51357 15.8012 6.51357Z" fill="#3E6FD8"/>
<path d="M17.3491 19.0296H22.1731C22.5427 19.0296 22.8067 18.6768 22.7035 18.3216L22.4611 17.4864C22.3915 17.2512 22.1755 17.088 21.9307 17.088H17.5915C17.3467 17.088 17.1283 17.2512 17.0611 17.4864L16.8187 18.3216C16.7131 18.6768 16.9795 19.0296 17.3491 19.0296Z" fill="#DA9D6A"/>
<path d="M15.4937 16.26L20.1665 15.3288C20.5313 15.2568 20.7713 14.9016 20.7017 14.5344L19.4825 8.15516L20.1785 6.08636C21.2105 6.83276 24.1481 9.55916 22.8449 15.7536C22.6793 16.5456 21.9737 17.112 21.1649 17.112H15.8993C15.8993 17.112 16.8713 20.2368 16.4129 23.2656C16.3889 23.4288 16.2449 23.5488 16.0793 23.5488H15.4313C15.7553 21.1416 15.2441 18.3192 14.9705 17.0592C14.8913 16.6944 15.1241 16.3344 15.4937 16.26Z" fill="#649CFF"/>
<path d="M18.1893 4.43277C18.1893 2.64717 16.7421 1.19757 14.9541 1.19757C14.4117 1.19757 13.9029 1.33197 13.4541 1.56717C14.0109 0.887972 14.8509 0.451172 15.7989 0.451172C17.4741 0.451172 18.8301 1.80957 18.8301 3.48237C18.8301 4.30557 18.5013 5.05197 17.9661 5.59917C18.1101 5.23677 18.1893 4.84557 18.1893 4.43277Z" fill="#649CFF"/>
</g>
<defs>
<clipPath id="clip0_1_1561">
<rect width="24" height="24" fill="white"/>
</clipPath>
</defs>
</svg>
