<svg width="24" height="24" viewBox="0 0 24 24" fill="none" xmlns="http://www.w3.org/2000/svg">
<g clip-path="url(#clip0_1_1554)">
<path d="M20.616 3.62402C18.72 1.70402 16.176 0.384018 13.272 0.0720183C7.05599 -0.599982 1.29599 3.72002 0.191993 9.86402C-1.03201 16.68 3.71999 23.04 10.512 23.904C13.296 24.264 15.984 23.616 18.216 22.272C18.84 21.888 19.008 21.072 18.552 20.496L12.528 12.672C12.24 12.312 12.312 11.76 12.672 11.472L20.472 5.42402C21.048 4.99202 21.096 4.15202 20.616 3.62402Z" fill="#FDCA3E"/>
<path opacity="0.54" d="M17.28 18.864C15.528 19.44 13.608 19.632 11.664 19.392C5.85599 18.672 1.43999 14.232 0.455993 8.76001C0.359993 9.12001 0.263993 9.48001 0.191993 9.86401C-1.03201 16.68 3.71999 23.04 10.512 23.904C13.296 24.264 15.984 23.616 18.216 22.272C18.84 21.888 19.008 21.072 18.552 20.496L17.28 18.864Z" fill="#F08200"/>
<path d="M13.8478 5.92802L13.5118 3.88802C13.3918 3.21602 12.7918 2.66402 12.1198 2.71202C11.3278 2.76002 10.7998 3.48002 10.9198 4.24802L11.2558 6.28802C11.3758 6.96002 11.9758 7.51202 12.6478 7.46402C13.4398 7.39202 13.9918 6.69602 13.8478 5.92802Z" fill="#131A26"/>
<path d="M20.9518 16.368C22.6352 16.368 23.9998 15.0033 23.9998 13.32C23.9998 11.6366 22.6352 10.272 20.9518 10.272C19.2684 10.272 17.9038 11.6366 17.9038 13.32C17.9038 15.0033 19.2684 16.368 20.9518 16.368Z" fill="#42C6A0"/>
</g>
<defs>
<clipPath id="clip0_1_1554">
<rect width="24" height="24" fill="white"/>
</clipPath>
</defs>
</svg>
