<svg width="89" height="23" viewBox="0 0 89 23" fill="none" xmlns="http://www.w3.org/2000/svg">
<path d="M84.6308 22.3871V11.3105H88.26L88.7411 7.412H84.6308L84.6369 5.46063C84.6369 4.44383 84.7492 3.89926 86.4466 3.89926H88.7157V0.00012207H85.0856C80.7253 0.00012207 79.1908 1.8912 79.1908 5.07189V7.4123H76.4727V11.3111H79.1908V22.2301C80.2497 22.4116 81.3444 22.5075 82.4653 22.5075C83.1894 22.5076 83.9127 22.4673 84.6308 22.3871Z" fill="#2F68C5"/>
<path d="M7.22563 11.2538C7.22563 9.18215 8.84251 7.50229 10.8376 7.50229C12.8326 7.50229 14.4504 9.18215 14.4504 11.2538C14.4504 13.3255 12.8326 15.0054 10.8376 15.0054C8.84251 15.0054 7.22563 13.3255 7.22563 11.2538ZM5.27261 11.2538C5.27261 14.4454 7.76404 17.0325 10.8376 17.0325C13.9111 17.0325 16.4025 14.4454 16.4025 11.2538C16.4025 8.06227 13.9111 5.47518 10.8376 5.47518C7.76404 5.47518 5.27261 8.06227 5.27261 11.2538ZM15.3223 5.24606C15.3222 5.51315 15.3984 5.77428 15.5412 5.99642C15.684 6.21855 15.8871 6.39173 16.1247 6.49404C16.3623 6.59635 16.6238 6.6232 16.8761 6.5712C17.1283 6.5192 17.3601 6.39068 17.5421 6.20189C17.724 6.0131 17.848 5.77253 17.8983 5.51059C17.9485 5.24865 17.9229 4.97711 17.8246 4.7303C17.7262 4.4835 17.5596 4.27252 17.3458 4.12404C17.132 3.97557 16.8806 3.89626 16.6234 3.89615H16.6228C16.2781 3.89632 15.9474 4.03858 15.7036 4.29168C15.4598 4.54479 15.3226 4.88804 15.3223 5.24606ZM6.45919 20.4141C5.40257 20.3641 4.82827 20.1813 4.44661 20.0269C3.94063 19.8224 3.57961 19.5788 3.20003 19.1852C2.82046 18.7916 2.5855 18.417 2.38938 17.8916C2.2406 17.4955 2.0646 16.899 2.01657 15.8018C1.96403 14.6155 1.95354 14.2592 1.95354 11.2539C1.95354 8.24864 1.9649 7.89329 2.01657 6.70607C2.06469 5.60888 2.24199 5.01351 2.38938 4.61621C2.58637 4.0908 2.82098 3.71591 3.20003 3.32177C3.57909 2.92762 3.93976 2.68364 4.44661 2.47999C4.8281 2.3255 5.40257 2.14274 6.45919 2.09286C7.60156 2.0383 7.94472 2.02741 10.8376 2.02741C13.7304 2.02741 14.0739 2.0392 15.2173 2.09286C16.2739 2.14283 16.8472 2.32694 17.2298 2.47999C17.7358 2.68364 18.0968 2.92816 18.4764 3.32177C18.856 3.71537 19.0901 4.0908 19.2871 4.61621C19.4358 5.01234 19.6118 5.60888 19.6599 6.70607C19.7124 7.89329 19.7229 8.24864 19.7229 11.2539C19.7229 14.2592 19.7124 14.6145 19.6599 15.8018C19.6118 16.899 19.4349 17.4953 19.2871 17.8916C19.0901 18.417 18.8555 18.7919 18.4764 19.1852C18.0974 19.5784 17.7358 19.8224 17.2298 20.0269C16.8484 20.1814 16.2739 20.3642 15.2173 20.4141C14.0749 20.4686 13.7317 20.4795 10.8376 20.4795C7.94342 20.4795 7.60121 20.4686 6.45919 20.4141ZM6.36946 0.0682745C5.21573 0.122832 4.42737 0.312795 3.73888 0.590986C3.02585 0.878271 2.42224 1.26369 1.81907 1.88903C1.21589 2.51438 0.845678 3.14216 0.569016 3.88256C0.301111 4.59793 0.118173 5.41612 0.0656324 6.61415C0.0122248 7.81406 0 8.19768 0 11.2538C0 14.31 0.0122248 14.6936 0.0656324 15.8935C0.118173 17.0916 0.301111 17.9097 0.569016 18.6251C0.845678 19.365 1.21598 19.9935 1.81907 20.6186C2.42215 21.2437 3.02585 21.6286 3.73888 21.9167C4.42867 22.1949 5.21573 22.3848 6.36946 22.4394C7.52561 22.4939 7.89444 22.5075 10.8376 22.5075C13.7807 22.5075 14.1501 22.4948 15.3057 22.4394C16.4595 22.3848 17.2473 22.1949 17.9363 21.9167C18.6489 21.6286 19.2529 21.244 19.8561 20.6186C20.4593 19.9933 20.8287 19.365 21.1061 18.6251C21.374 17.9097 21.5578 17.0915 21.6095 15.8935C21.6621 14.6927 21.6743 14.31 21.6743 11.2538C21.6743 8.19768 21.6621 7.81406 21.6095 6.61415C21.557 5.41603 21.374 4.59748 21.1061 3.88256C20.8287 3.14261 20.4583 2.51537 19.8561 1.88903C19.2539 1.2627 18.6489 0.878271 17.9371 0.590986C17.2473 0.312795 16.4594 0.121932 15.3066 0.0682745C14.151 0.0137165 13.7816 0.00012207 10.8384 0.00012207C7.8953 0.00012207 7.52561 0.0128163 6.36946 0.0682745Z" fill="#2F68C5"/>
<path d="M49.8609 9.75029L58.5386 0.38147H56.4823L48.9475 8.51628L42.9294 0.38147H35.9883L45.0888 12.6827L35.9883 22.5074H38.0447L46.0017 13.9167L52.3572 22.5074H59.2984L49.8609 9.75029ZM47.0443 12.7911L46.1223 11.5662L38.7857 1.81929H41.9443L47.865 9.68535L48.7871 10.9103L56.4833 21.1349H53.3247L47.0443 12.7911Z" fill="#2F68C5"/>
</svg>
